<svg width="24" height="24" viewBox="0 0 24 24" fill="none" xmlns="http://www.w3.org/2000/svg">
<path d="M3 18C3 15.2386 5.23858 13 8 13H12C14.7614 13 17 15.2386 17 18V23H3V18Z" stroke="#67CDFF" stroke-width="2"/>
<path d="M15 6C15 8.76142 12.7614 11 10 11C7.23858 11 5 8.76142 5 6C5 3.23858 7.23858 1 10 1C12.7614 1 15 3.23858 15 6Z" stroke="#67CDFF" stroke-width="2"/>
<mask id="path-3-inside-1" fill="white">
<path fill-rule="evenodd" clip-rule="evenodd" d="M22.2632 11.9497C22.6537 12.3403 22.6537 12.9734 22.2632 13.364L13.7779 21.8492L12.3637 23.2635C11.9732 23.654 11.34 23.654 10.9495 23.2635L9.5353 21.8492L6.70688 19.0208C6.31635 18.6303 6.31635 17.9971 6.70688 17.6066L8.12109 16.1924C8.51161 15.8019 9.14478 15.8019 9.5353 16.1924L11.6566 18.3137L19.4348 10.5355C19.8253 10.145 20.4585 10.145 20.849 10.5355L22.2632 11.9497Z"/>
</mask>
<path d="M11.6566 18.3137L10.2424 19.7279L11.6566 21.1421L13.0708 19.7279L11.6566 18.3137ZM23.6774 14.7782C24.849 13.6066 24.849 11.7071 23.6774 10.5355L20.849 13.364C20.4585 12.9734 20.4585 12.3403 20.849 11.9497L23.6774 14.7782ZM15.1922 23.2635L23.6774 14.7782L20.849 11.9497L12.3637 20.435L15.1922 23.2635ZM13.7779 24.6777L15.1922 23.2635L12.3637 20.435L10.9495 21.8492L13.7779 24.6777ZM9.5353 24.6777C10.7069 25.8492 12.6064 25.8492 13.7779 24.6777L10.9495 21.8492C11.34 21.4587 11.9732 21.4587 12.3637 21.8492L9.5353 24.6777ZM8.12109 23.2635L9.5353 24.6777L12.3637 21.8492L10.9495 20.435L8.12109 23.2635ZM5.29266 20.435L8.12109 23.2635L10.9495 20.435L8.12109 17.6066L5.29266 20.435ZM5.29266 16.1924C4.12109 17.364 4.12109 19.2635 5.29266 20.435L8.12109 17.6066C8.51161 17.9971 8.51161 18.6303 8.12109 19.0208L5.29266 16.1924ZM6.70688 14.7782L5.29266 16.1924L8.12109 19.0208L9.5353 17.6066L6.70688 14.7782ZM10.9495 14.7782C9.77794 13.6066 7.87845 13.6066 6.70688 14.7782L9.5353 17.6066C9.14478 17.9971 8.51161 17.9971 8.12109 17.6066L10.9495 14.7782ZM13.0708 16.8995L10.9495 14.7782L8.12109 17.6066L10.2424 19.7279L13.0708 16.8995ZM18.0206 9.12132L10.2424 16.8995L13.0708 19.7279L20.849 11.9497L18.0206 9.12132ZM22.2632 9.12132C21.0917 7.94975 19.1922 7.94975 18.0206 9.12132L20.849 11.9497C20.4585 12.3403 19.8253 12.3403 19.4348 11.9497L22.2632 9.12132ZM23.6774 10.5355L22.2632 9.12132L19.4348 11.9497L20.849 13.364L23.6774 10.5355Z" fill="#2693FF" mask="url(#path-3-inside-1)"/>
</svg>
