<svg width="24" height="24" viewBox="0 0 24 24" fill="none" xmlns="http://www.w3.org/2000/svg">
<path d="M9 8C13.4183 8 17 6.65685 17 5C17 3.34315 13.4183 2 9 2C4.58172 2 1 3.34315 1 5C1 6.65685 4.58172 8 9 8Z" stroke="#67CDFF" stroke-width="2"/>
<path d="M1 9C1 10.6569 4.58172 12 9 12C13.4183 12 17 10.6569 17 9" stroke="#67CDFF" stroke-width="2"/>
<path d="M1 13C1 14.6569 4.58172 16 9 16C10.1258 16 11.1973 15.9128 12.1691 15.7554" stroke="#67CDFF" stroke-width="2"/>
<path d="M1 5V17C1 18.6569 4.58172 20 9 20C10.2952 20 11.5185 19.8846 12.6008 19.6797M17 12V5" stroke="#67CDFF" stroke-width="2"/>
<path fill-rule="evenodd" clip-rule="evenodd" d="M17 11C17.5523 11 18 11.4558 18 12.0025L18.0002 12.1001C18.6385 12.2297 19.2327 12.4809 19.7574 12.8284L19.8267 12.7591C20.1881 12.3977 20.7537 12.3669 21.1479 12.6736L21.2426 12.7574C21.6332 13.1479 21.6275 13.7867 21.2409 14.1733L21.1716 14.2426C21.5191 14.7673 21.7703 15.3615 21.8999 15.9998L21.9975 16C22.5116 16 22.9353 16.3827 22.9933 16.8827L23 17C23 17.5523 22.5442 18 21.9975 18L21.8997 18.0012C21.7701 18.6391 21.519 19.233 21.1716 19.7574L21.2409 19.8267C21.6023 20.1881 21.6331 20.7537 21.3264 21.1479L21.2426 21.2426C20.8521 21.6332 20.2133 21.6275 19.8267 21.2409L19.7574 21.1716C19.2327 21.5191 18.6385 21.7703 18.0002 21.8999L18 21.9975C18 22.5116 17.6173 22.9353 17.1173 22.9933L17 23C16.4477 23 16 22.5442 16 21.9975L15.9988 21.8997C15.3609 21.7701 14.767 21.519 14.2426 21.1716L14.1733 21.2409C13.8119 21.6023 13.2463 21.6331 12.8521 21.3264L12.7574 21.2426C12.3668 20.8521 12.3725 20.2133 12.7591 19.8267L12.8284 19.7574C12.481 19.233 12.2299 18.6391 12.1003 18.0012L12.0025 18C11.4884 18 11.0647 17.6173 11.0067 17.1173L11 17C11 16.4477 11.4558 16 12.0025 16L12.1001 15.9998C12.2297 15.3615 12.4809 14.7673 12.8284 14.2426L12.7591 14.1733C12.3977 13.8119 12.3669 13.2463 12.6736 12.8521L12.7574 12.7574C13.1479 12.3668 13.7867 12.3725 14.1733 12.7591L14.2426 12.8284C14.767 12.481 15.3609 12.2299 15.9988 12.1003L16 12.0025C16 11.4884 16.3827 11.0647 16.8827 11.0067L17 11Z" stroke="#2693FF" stroke-width="2"/>
<path d="M17 19C18.1046 19 19 18.1046 19 17C19 15.8954 18.1046 15 17 15C15.8954 15 15 15.8954 15 17C15 18.1046 15.8954 19 17 19Z" stroke="#2693FF" stroke-width="2"/>
</svg>
