<svg width="24" height="24" viewBox="0 0 24 24" fill="none" xmlns="http://www.w3.org/2000/svg">
<path fill-rule="evenodd" clip-rule="evenodd" d="M9.0003 5.05493L9 15L18.945 15.0007C18.4472 19.5003 14.6323 23 10 23C5.02944 23 1 18.9706 1 14C1 9.36738 4.50021 5.55224 9.0003 5.05493Z" stroke="#67CDFF" stroke-width="2" stroke-linecap="round" stroke-linejoin="round"/>
<path fill-rule="evenodd" clip-rule="evenodd" d="M13 2C14.975 2 16.8015 2.63618 18.2856 3.71479L12 10L11.9995 2.05498C12.328 2.01865 12.6618 2 13 2Z" stroke="#2693FF" stroke-width="2" stroke-linecap="round" stroke-linejoin="round"/>
<path fill-rule="evenodd" clip-rule="evenodd" d="M20.2858 5.71509C21.364 7.19906 22 9.02521 22 10.9999C22 11.3381 21.9813 11.672 21.945 12.0006L14 11.9999L20.2858 5.71509Z" stroke="#67CDFF" stroke-width="2" stroke-linecap="round" stroke-linejoin="round"/>
</svg>
