<svg width="24" height="24" viewBox="0 0 24 24" fill="none" xmlns="http://www.w3.org/2000/svg">
<path fill-rule="evenodd" clip-rule="evenodd" d="M12 1L22 6L20 19L12 23L4 19L2 6L12 1Z" stroke="#2693FF" stroke-width="2" stroke-linecap="round" stroke-linejoin="round"/>
<path d="M17.5427 17H15.5777C15.3577 17 15.1752 16.95 15.0302 16.85C14.8902 16.745 14.7927 16.6125 14.7377 16.4525L14.0927 14.5475H9.93766L9.29266 16.4525C9.24266 16.5925 9.14516 16.72 9.00016 16.835C8.85516 16.945 8.67766 17 8.46766 17H6.48766L10.7177 6.0725H13.3127L17.5427 17ZM10.5227 12.8225H13.5077L12.5027 9.83C12.4377 9.64 12.3602 9.4175 12.2702 9.1625C12.1852 8.9025 12.1002 8.6225 12.0152 8.3225C11.9352 8.6275 11.8527 8.91 11.7677 9.17C11.6827 9.43 11.6027 9.655 11.5277 9.845L10.5227 12.8225Z" fill="#67CDFF"/>
</svg>
