<svg width="24" height="24" viewBox="0 0 24 24" fill="none" xmlns="http://www.w3.org/2000/svg">
<mask id="path-1-inside-1" fill="white">
<path fill-rule="evenodd" clip-rule="evenodd" d="M9 1C9 0.447716 9.44772 0 10 0H14C14.5523 0 15 0.447715 15 1V2.4578C15.5651 2.6353 16.1086 2.86161 16.6256 3.13179L17.6569 2.10051C18.0474 1.70998 18.6805 1.70998 19.0711 2.10051L21.8995 4.92893C22.29 5.31946 22.29 5.95262 21.8995 6.34315L20.8682 7.37443C21.1384 7.89138 21.3647 8.43488 21.5422 9H23C23.5523 9 24 9.44772 24 10V14C24 14.5523 23.5523 15 23 15H21.5422C21.3647 15.5651 21.1384 16.1086 20.8682 16.6256L21.8995 17.6569C22.29 18.0474 22.29 18.6805 21.8995 19.0711L19.0711 21.8995C18.6805 22.29 18.0474 22.29 17.6569 21.8995L16.6256 20.8682C16.1086 21.1384 15.5651 21.3647 15 21.5422V23C15 23.5523 14.5523 24 14 24H10C9.44772 24 9 23.5523 9 23V21.5422C8.43488 21.3647 7.89138 21.1384 7.37443 20.8682L6.34315 21.8995C5.95262 22.29 5.31946 22.29 4.92893 21.8995L2.1005 19.0711C1.70998 18.6805 1.70998 18.0474 2.1005 17.6569L3.13179 16.6256C2.86161 16.1086 2.6353 15.5651 2.4578 15H1C0.447716 15 0 14.5523 0 14V10C0 9.44772 0.447715 9 1 9H2.4578C2.6353 8.43488 2.86161 7.89138 3.13179 7.37443L2.10051 6.34315C1.70998 5.95262 1.70998 5.31946 2.10051 4.92893L4.92893 2.10051C5.31946 1.70998 5.95262 1.70998 6.34315 2.1005L7.37443 3.13179C7.89138 2.86161 8.43488 2.6353 9 2.4578V1Z"/>
</mask>
<path d="M15 2.4578H13V3.92597L14.4007 4.3659L15 2.4578ZM16.6256 3.13179L15.6992 4.90429L17.001 5.58474L18.0398 4.54601L16.6256 3.13179ZM17.6569 2.10051L19.0711 3.51472L19.0711 3.51472L17.6569 2.10051ZM19.0711 2.10051L20.4853 0.686292L20.4853 0.686289L19.0711 2.10051ZM21.8995 4.92893L20.4853 6.34315V6.34315L21.8995 4.92893ZM21.8995 6.34315L23.3137 7.75736L23.3137 7.75736L21.8995 6.34315ZM20.8682 7.37443L19.454 5.96022L18.4153 6.99895L19.0957 8.30085L20.8682 7.37443ZM21.5422 9L19.6341 9.5993L20.074 11H21.5422V9ZM21.5422 15V13H20.074L19.6341 14.4007L21.5422 15ZM20.8682 16.6256L19.0957 15.6992L18.4153 17.001L19.454 18.0398L20.8682 16.6256ZM21.8995 17.6569L23.3137 16.2426L23.3137 16.2426L21.8995 17.6569ZM16.6256 20.8682L18.0398 19.454L17.001 18.4153L15.6992 19.0957L16.6256 20.8682ZM15 21.5422L14.4007 19.6341L13 20.074V21.5422H15ZM9 21.5422H11V20.074L9.5993 19.6341L9 21.5422ZM7.37443 20.8682L8.30085 19.0957L6.99895 18.4153L5.96022 19.454L7.37443 20.8682ZM6.34315 21.8995L4.92893 20.4853H4.92893L6.34315 21.8995ZM4.92893 21.8995L3.51472 23.3137L3.51472 23.3137L4.92893 21.8995ZM2.1005 19.0711L3.51472 17.6569L3.51472 17.6569L2.1005 19.0711ZM2.1005 17.6569L3.51472 19.0711L3.51472 19.0711L2.1005 17.6569ZM3.13179 16.6256L4.54601 18.0398L5.58474 17.001L4.90429 15.6992L3.13179 16.6256ZM2.4578 15L4.3659 14.4007L3.92597 13H2.4578V15ZM2.4578 9V11H3.92597L4.3659 9.5993L2.4578 9ZM3.13179 7.37443L4.90429 8.30085L5.58474 6.99895L4.54601 5.96022L3.13179 7.37443ZM2.10051 6.34315L0.686292 7.75736H0.686292L2.10051 6.34315ZM2.10051 4.92893L3.51472 6.34315L3.51472 6.34315L2.10051 4.92893ZM4.92893 2.10051L6.34315 3.51472L6.34315 3.51472L4.92893 2.10051ZM6.34315 2.1005L7.75736 0.686291L7.75736 0.686291L6.34315 2.1005ZM7.37443 3.13179L5.96022 4.54601L6.99895 5.58474L8.30085 4.90429L7.37443 3.13179ZM9 2.4578L9.5993 4.3659L11 3.92597V2.4578H9ZM10 -2C8.34315 -2 7 -0.656853 7 1H11C11 1.55228 10.5523 2 10 2V-2ZM14 -2H10V2H14V-2ZM17 1C17 -0.656855 15.6569 -2 14 -2V2C13.4477 2 13 1.55229 13 1H17ZM17 2.4578V1H13V2.4578H17ZM17.552 1.35929C16.9313 1.03489 16.2784 0.763002 15.5993 0.549704L14.4007 4.3659C14.8518 4.50759 15.2859 4.68832 15.6992 4.90429L17.552 1.35929ZM16.2426 0.686292L15.2114 1.71758L18.0398 4.54601L19.0711 3.51472L16.2426 0.686292ZM20.4853 0.686289C19.3137 -0.485279 17.4142 -0.485283 16.2426 0.686292L19.0711 3.51472C18.6805 3.90524 18.0474 3.90524 17.6569 3.51472L20.4853 0.686289ZM23.3137 3.51472L20.4853 0.686292L17.6569 3.51472L20.4853 6.34315L23.3137 3.51472ZM23.3137 7.75736C24.4853 6.58579 24.4853 4.68629 23.3137 3.51472L20.4853 6.34315C20.0948 5.95262 20.0948 5.31946 20.4853 4.92893L23.3137 7.75736ZM22.2824 8.78865L23.3137 7.75736L20.4853 4.92893L19.454 5.96022L22.2824 8.78865ZM23.4503 8.4007C23.237 7.72158 22.9651 7.06869 22.6407 6.44802L19.0957 8.30085C19.3117 8.71406 19.4924 9.14817 19.6341 9.5993L23.4503 8.4007ZM23 7H21.5422V11H23V7ZM26 10C26 8.34315 24.6569 7 23 7V11C22.4477 11 22 10.5523 22 10H26ZM26 14V10H22V14H26ZM23 17C24.6569 17 26 15.6569 26 14H22C22 13.4477 22.4477 13 23 13V17ZM21.5422 17H23V13H21.5422V17ZM22.6407 17.552C22.9651 16.9313 23.237 16.2784 23.4503 15.5993L19.6341 14.4007C19.4924 14.8518 19.3117 15.2859 19.0957 15.6992L22.6407 17.552ZM23.3137 16.2426L22.2824 15.2114L19.454 18.0398L20.4853 19.0711L23.3137 16.2426ZM23.3137 20.4853C24.4853 19.3137 24.4853 17.4142 23.3137 16.2426L20.4853 19.0711C20.0948 18.6805 20.0948 18.0474 20.4853 17.6569L23.3137 20.4853ZM20.4853 23.3137L23.3137 20.4853L20.4853 17.6569L17.6569 20.4853L20.4853 23.3137ZM16.2426 23.3137C17.4142 24.4853 19.3137 24.4853 20.4853 23.3137L17.6569 20.4853C18.0474 20.0948 18.6805 20.0948 19.0711 20.4853L16.2426 23.3137ZM15.2114 22.2824L16.2426 23.3137L19.0711 20.4853L18.0398 19.454L15.2114 22.2824ZM15.5993 23.4503C16.2784 23.237 16.9313 22.9651 17.552 22.6407L15.6992 19.0957C15.2859 19.3117 14.8518 19.4924 14.4007 19.6341L15.5993 23.4503ZM17 23V21.5422H13V23H17ZM14 26C15.6569 26 17 24.6569 17 23H13C13 22.4477 13.4477 22 14 22V26ZM10 26H14V22H10V26ZM7 23C7 24.6569 8.34315 26 10 26V22C10.5523 22 11 22.4477 11 23H7ZM7 21.5422V23H11V21.5422H7ZM6.44802 22.6407C7.06869 22.9651 7.72158 23.237 8.4007 23.4503L9.5993 19.6341C9.14817 19.4924 8.71406 19.3117 8.30085 19.0957L6.44802 22.6407ZM7.75736 23.3137L8.78865 22.2824L5.96022 19.454L4.92893 20.4853L7.75736 23.3137ZM3.51472 23.3137C4.68629 24.4853 6.58579 24.4853 7.75736 23.3137L4.92893 20.4853C5.31946 20.0948 5.95262 20.0948 6.34314 20.4853L3.51472 23.3137ZM0.686291 20.4853L3.51472 23.3137L6.34314 20.4853L3.51472 17.6569L0.686291 20.4853ZM0.686292 16.2426C-0.485282 17.4142 -0.485282 19.3137 0.686292 20.4853L3.51472 17.6569C3.90524 18.0474 3.90524 18.6805 3.51472 19.0711L0.686292 16.2426ZM1.71758 15.2114L0.686291 16.2426L3.51472 19.0711L4.54601 18.0398L1.71758 15.2114ZM0.549704 15.5993C0.763002 16.2784 1.03489 16.9313 1.35929 17.552L4.90429 15.6992C4.68832 15.2859 4.50759 14.8518 4.3659 14.4007L0.549704 15.5993ZM1 17H2.4578V13H1V17ZM-2 14C-2 15.6569 -0.656853 17 1 17V13C1.55228 13 2 13.4477 2 14H-2ZM-2 10V14H2V10H-2ZM1 7C-0.656855 7 -2 8.34315 -2 10H2C2 10.5523 1.55229 11 1 11V7ZM2.4578 7H1V11H2.4578V7ZM1.35929 6.44802C1.03489 7.06869 0.763002 7.72158 0.549703 8.4007L4.3659 9.5993C4.50759 9.14817 4.68832 8.71406 4.90429 8.30085L1.35929 6.44802ZM0.686292 7.75736L1.71758 8.78865L4.54601 5.96022L3.51472 4.92893L0.686292 7.75736ZM0.686292 3.51472C-0.485283 4.68629 -0.48528 6.58579 0.686292 7.75736L3.51472 4.92893C3.90524 5.31946 3.90524 5.95262 3.51472 6.34315L0.686292 3.51472ZM3.51472 0.686292L0.686292 3.51472L3.51472 6.34315L6.34315 3.51472L3.51472 0.686292ZM7.75736 0.686291C6.58579 -0.485281 4.68629 -0.485282 3.51472 0.686292L6.34315 3.51472C5.95262 3.90524 5.31946 3.90524 4.92893 3.51472L7.75736 0.686291ZM8.78865 1.71758L7.75736 0.686291L4.92893 3.51472L5.96022 4.54601L8.78865 1.71758ZM8.4007 0.549704C7.72159 0.763002 7.06869 1.03489 6.44802 1.35929L8.30085 4.90429C8.71406 4.68832 9.14817 4.50759 9.5993 4.3659L8.4007 0.549704ZM7 1V2.4578H11V1H7Z" fill="#67CDFF" mask="url(#path-1-inside-1)"/>
<path fill-rule="evenodd" clip-rule="evenodd" d="M12 17C14.7614 17 17 14.7614 17 12C17 9.23858 14.7614 7 12 7C9.23858 7 7 9.23858 7 12C7 14.7614 9.23858 17 12 17Z" stroke="#2693FF" stroke-width="2"/>
</svg>
