<svg width="24" height="24" viewBox="0 0 24 24" fill="none" xmlns="http://www.w3.org/2000/svg">
<path fill-rule="evenodd" clip-rule="evenodd" d="M10 5C11.8531 5 13.4707 6.00806 14.3344 7.50571C14.8099 7.18613 15.3832 7 16 7C17.6569 7 19 8.34315 19 10C19 10.0336 18.9994 10.0671 18.9984 10.1005C21.2813 10.5622 23 12.5804 23 15C23 17.7614 20.7614 20 18 20H6C3.23858 20 1 17.7614 1 15C1 12.5804 2.71867 10.5622 5.00181 10.0997L5 10C5 7.23858 7.23858 5 10 5Z" stroke="#67CDFF" stroke-width="2" stroke-linecap="round" stroke-linejoin="round"/>
<path d="M9.166 17H8.249C8.14633 17 8.06117 16.9767 7.9935 16.93C7.92817 16.881 7.88267 16.8192 7.857 16.7445L7.556 15.8555H5.617L5.316 16.7445C5.29267 16.8098 5.24717 16.8693 5.1795 16.923C5.11183 16.9743 5.029 17 4.931 17H4.007L5.981 11.9005H7.192L9.166 17ZM5.89 15.0505H7.283L6.814 13.654C6.78367 13.5653 6.7475 13.4615 6.7055 13.3425C6.66583 13.2212 6.62617 13.0905 6.5865 12.9505C6.54917 13.0928 6.51067 13.2247 6.471 13.346C6.43133 13.4673 6.394 13.5723 6.359 13.661L5.89 15.0505ZM8.77914 11.9005H9.77314C9.87581 11.9005 9.96097 11.9238 10.0286 11.9705C10.0986 12.0172 10.1441 12.079 10.1651 12.156L10.8651 14.816C10.8885 14.9023 10.9118 14.9945 10.9351 15.0925C10.9585 15.1905 10.976 15.2932 10.9876 15.4005C11.011 15.2908 11.0366 15.1882 11.0646 15.0925C11.0926 14.9945 11.1195 14.9023 11.1451 14.816L11.9711 12.156C11.9921 12.0907 12.0365 12.0323 12.1041 11.981C12.1741 11.9273 12.2581 11.9005 12.3561 11.9005H12.7061C12.8088 11.9005 12.8928 11.9238 12.9581 11.9705C13.0258 12.0148 13.0725 12.0767 13.0981 12.156L13.9171 14.816C13.9428 14.8977 13.9696 14.9852 13.9976 15.0785C14.0256 15.1695 14.0501 15.2675 14.0711 15.3725C14.0898 15.2698 14.1085 15.1718 14.1271 15.0785C14.1481 14.9852 14.1691 14.8977 14.1901 14.816L14.8901 12.156C14.9088 12.0883 14.9531 12.0288 15.0231 11.9775C15.0931 11.9262 15.1771 11.9005 15.2751 11.9005H16.2061L14.6311 17H13.5601L12.6011 13.8395C12.5848 13.7905 12.5673 13.7368 12.5486 13.6785C12.5323 13.6202 12.516 13.5583 12.4996 13.493C12.4833 13.5583 12.4658 13.6202 12.4471 13.6785C12.4308 13.7368 12.4145 13.7905 12.3981 13.8395L11.4251 17H10.3541L8.77914 11.9005ZM19.5052 12.9365C19.4702 12.9925 19.4328 13.0345 19.3932 13.0625C19.3558 13.0905 19.3068 13.1045 19.2462 13.1045C19.1925 13.1045 19.1342 13.0882 19.0712 13.0555C19.0105 13.0205 18.9405 12.982 18.8612 12.94C18.7842 12.898 18.6955 12.8607 18.5952 12.828C18.4948 12.793 18.3805 12.7755 18.2522 12.7755C18.0305 12.7755 17.8648 12.8233 17.7552 12.919C17.6478 13.0123 17.5942 13.1395 17.5942 13.3005C17.5942 13.4032 17.6268 13.4883 17.6922 13.556C17.7575 13.6237 17.8427 13.682 17.9477 13.731C18.055 13.78 18.1763 13.8255 18.3117 13.8675C18.4493 13.9072 18.5893 13.9527 18.7317 14.004C18.874 14.053 19.0128 14.1113 19.1482 14.179C19.2858 14.2467 19.4072 14.333 19.5122 14.438C19.6195 14.543 19.7058 14.6713 19.7712 14.823C19.8365 14.9723 19.8692 15.1532 19.8692 15.3655C19.8692 15.6012 19.8283 15.8217 19.7467 16.027C19.665 16.2323 19.546 16.412 19.3897 16.566C19.2357 16.7177 19.0443 16.8378 18.8157 16.9265C18.5893 17.0128 18.3315 17.056 18.0422 17.056C17.8835 17.056 17.7213 17.0397 17.5557 17.007C17.3923 16.9743 17.2337 16.9288 17.0797 16.8705C16.9257 16.8098 16.781 16.7387 16.6457 16.657C16.5103 16.5753 16.3925 16.4843 16.2922 16.384L16.6422 15.831C16.6678 15.789 16.704 15.7552 16.7507 15.7295C16.7973 15.7038 16.8475 15.691 16.9012 15.691C16.9712 15.691 17.0412 15.7132 17.1112 15.7575C17.1835 15.8018 17.264 15.8508 17.3527 15.9045C17.4437 15.9582 17.5475 16.0072 17.6642 16.0515C17.7808 16.0958 17.9185 16.118 18.0772 16.118C18.2918 16.118 18.4587 16.0713 18.5777 15.978C18.6967 15.8823 18.7562 15.7318 18.7562 15.5265C18.7562 15.4075 18.7235 15.3107 18.6582 15.236C18.5928 15.1613 18.5065 15.0995 18.3992 15.0505C18.2942 15.0015 18.174 14.9583 18.0387 14.921C17.9033 14.8837 17.7645 14.8428 17.6222 14.7985C17.4798 14.7518 17.341 14.6958 17.2057 14.6305C17.0703 14.5628 16.949 14.4753 16.8417 14.368C16.7367 14.2583 16.6515 14.123 16.5862 13.962C16.5208 13.7987 16.4882 13.598 16.4882 13.36C16.4882 13.1687 16.5267 12.982 16.6037 12.8C16.6807 12.618 16.7938 12.4558 16.9432 12.3135C17.0925 12.1712 17.2757 12.058 17.4927 11.974C17.7097 11.8877 17.9582 11.8445 18.2382 11.8445C18.3945 11.8445 18.5462 11.8573 18.6932 11.883C18.8425 11.9063 18.9837 11.9425 19.1167 11.9915C19.2497 12.0382 19.3733 12.0953 19.4877 12.163C19.6043 12.2283 19.7082 12.303 19.7992 12.387L19.5052 12.9365Z" fill="#2693FF"/>
</svg>
