<svg width="24" height="24" viewBox="0 0 24 24" fill="none" xmlns="http://www.w3.org/2000/svg">
<path fill-rule="evenodd" clip-rule="evenodd" d="M6 6H23L20 15H9L6 6Z" stroke="#67CDFF" stroke-width="2" stroke-linejoin="round"/>
<path d="M10 22C11.1046 22 12 21.1046 12 20C12 18.8954 11.1046 18 10 18C8.89543 18 8 18.8954 8 20C8 21.1046 8.89543 22 10 22Z" fill="#2693FF"/>
<path d="M18 22C19.1046 22 20 21.1046 20 20C20 18.8954 19.1046 18 18 18C16.8954 18 16 18.8954 16 20C16 21.1046 16.8954 22 18 22Z" fill="#2693FF"/>
<path d="M6 6L5 3H1" stroke="#67CDFF" stroke-width="2" stroke-linecap="round" stroke-linejoin="round"/>
</svg>
