<svg width="24" height="24" viewBox="0 0 24 24" fill="none" xmlns="http://www.w3.org/2000/svg">
<rect x="4.5" y="4.5" width="1" height="19" stroke="#67CDFF"/>
<rect x="6.5" y="2.5" width="1" height="1" stroke="#67CDFF"/>
<rect x="6.5" y="6.5" width="1" height="1" stroke="#67CDFF"/>
<rect x="8.5" y="4.5" width="1" height="1" stroke="#67CDFF"/>
<rect x="8.5" y="8.5" width="1" height="1" stroke="#67CDFF"/>
<rect x="10.5" y="6.5" width="1" height="1" stroke="#67CDFF"/>
<rect x="10.5" y="2.5" width="1" height="1" stroke="#67CDFF"/>
<rect x="12.5" y="4.5" width="1" height="1" stroke="#67CDFF"/>
<rect x="12.5" y="8.5" width="1" height="1" stroke="#67CDFF"/>
<rect x="14.5" y="6.5" width="1" height="1" stroke="#67CDFF"/>
<rect x="14.5" y="10.5" width="1" height="1" stroke="#67CDFF"/>
<rect x="16.5" y="8.5" width="1" height="1" stroke="#67CDFF"/>
<rect x="16.5" y="4.5" width="1" height="1" stroke="#67CDFF"/>
<path d="M5 2C5 1.44772 5.44772 1 6 1H11.1716C11.4368 1 11.6911 1.10536 11.8787 1.29289L12.7071 2.12132C13.2697 2.68393 14.0328 3 14.8284 3H18C18.5523 3 19 3.44772 19 4V12C19 12.5523 18.5523 13 18 13H14.8284C14.5632 13 14.3089 12.8946 14.1213 12.7071L13.2929 11.8787C12.7303 11.3161 11.9672 11 11.1716 11H6C5.44772 11 5 10.5523 5 10V2Z" stroke="#2693FF" stroke-width="2"/>
</svg>
