<svg width="24" height="24" viewBox="0 0 24 24" fill="none" xmlns="http://www.w3.org/2000/svg">
<mask id="path-1-inside-1" fill="white">
<path fill-rule="evenodd" clip-rule="evenodd" d="M22.092 7.94965C22.4825 8.34018 22.4825 8.97334 22.092 9.36387L10.1925 21.2634L9.36407 22.0918L8.77828 22.6776C8.38776 23.0681 7.75459 23.0681 7.36407 22.6776L1.70721 17.0207C1.31669 16.6302 1.31669 15.997 1.70721 15.6065L3.12143 14.1923C3.51195 13.8018 4.14512 13.8018 4.53564 14.1923L8.07117 17.7278L19.2636 6.53544C19.6541 6.14492 20.2873 6.14492 20.6778 6.53544L22.092 7.94965Z"/>
</mask>
<path d="M8.07117 17.7278L6.65696 19.142L8.07117 20.5563L9.48539 19.142L8.07117 17.7278ZM23.5062 10.7781C24.6778 9.60651 24.6778 7.70701 23.5062 6.53544L20.6778 9.36387C20.2873 8.97334 20.2873 8.34018 20.6778 7.94965L23.5062 10.7781ZM11.6067 22.6776L23.5062 10.7781L20.6778 7.94965L8.77828 19.8491L11.6067 22.6776ZM10.7783 23.506L11.6067 22.6776L8.77828 19.8491L7.94985 20.6776L10.7783 23.506ZM10.1925 24.0918L10.7783 23.506L7.94985 20.6776L7.36407 21.2634L10.1925 24.0918ZM5.94985 24.0918C7.12143 25.2634 9.02092 25.2634 10.1925 24.0918L7.36407 21.2634C7.75459 20.8728 8.38776 20.8728 8.77828 21.2634L5.94985 24.0918ZM0.292999 18.4349L5.94985 24.0918L8.77828 21.2634L3.12143 15.6065L0.292999 18.4349ZM0.292999 14.1923C-0.878574 15.3639 -0.878573 17.2634 0.292999 18.4349L3.12143 15.6065C3.51195 15.997 3.51195 16.6302 3.12143 17.0207L0.292999 14.1923ZM1.70721 12.7781L0.292999 14.1923L3.12143 17.0207L4.53564 15.6065L1.70721 12.7781ZM5.94985 12.7781C4.77828 11.6065 2.87878 11.6065 1.70721 12.7781L4.53564 15.6065C4.14512 15.997 3.51195 15.997 3.12143 15.6065L5.94985 12.7781ZM9.48539 16.3136L5.94985 12.7781L3.12143 15.6065L6.65696 19.142L9.48539 16.3136ZM17.8493 5.12123L6.65696 16.3136L9.48539 19.142L20.6778 7.94965L17.8493 5.12123ZM22.092 5.12123C20.9204 3.94965 19.0209 3.94965 17.8493 5.12123L20.6778 7.94965C20.2873 8.34018 19.6541 8.34018 19.2636 7.94965L22.092 5.12123ZM23.5062 6.53544L22.092 5.12123L19.2636 7.94965L20.6778 9.36387L23.5062 6.53544Z" fill="#67CDFF" mask="url(#path-1-inside-1)"/>
</svg>
