<svg width="24" height="24" viewBox="0 0 24 24" fill="none" xmlns="http://www.w3.org/2000/svg">
<mask id="path-1-inside-1" fill="white">
<path fill-rule="evenodd" clip-rule="evenodd" d="M19.793 7.84321C20.1835 7.45268 20.1835 6.81952 19.793 6.429L18.3788 5.01478C17.9883 4.62426 17.3551 4.62426 16.9646 5.01478L9.18641 12.793L7.06509 10.6716C6.67456 10.2811 6.0414 10.2811 5.65087 10.6716L4.23666 12.0858C3.84614 12.4764 3.84614 13.1095 4.23666 13.5001L7.06509 16.3285L8.4793 17.7427C8.86983 18.1332 9.50299 18.1332 9.89351 17.7427L11.3077 16.3285L19.793 7.84321Z"/>
</mask>
<path d="M9.18641 12.793L7.77219 14.2072L9.18641 15.6214L10.6006 14.2072L9.18641 12.793ZM18.3788 7.84321C17.9883 7.45268 17.9883 6.81952 18.3788 6.429L21.2072 9.25742C22.3788 8.08585 22.3788 6.18636 21.2072 5.01478L18.3788 7.84321ZM16.9646 6.429L18.3788 7.84321L21.2072 5.01478L19.793 3.60057L16.9646 6.429ZM18.3788 6.429C17.9883 6.81952 17.3551 6.81952 16.9646 6.429L19.793 3.60057C18.6214 2.429 16.7219 2.429 15.5504 3.60057L18.3788 6.429ZM10.6006 14.2072L18.3788 6.429L15.5504 3.60057L7.77219 11.3787L10.6006 14.2072ZM5.65087 12.0858L7.77219 14.2072L10.6006 11.3787L8.4793 9.25742L5.65087 12.0858ZM7.06509 12.0858C6.67456 12.4764 6.0414 12.4764 5.65087 12.0858L8.4793 9.25742C7.30773 8.08585 5.40823 8.08585 4.23666 9.25742L7.06509 12.0858ZM5.65087 13.5001L7.06509 12.0858L4.23666 9.25742L2.82245 10.6716L5.65087 13.5001ZM5.65087 12.0858C6.0414 12.4764 6.0414 13.1095 5.65087 13.5001L2.82245 10.6716C1.65087 11.8432 1.65087 13.7427 2.82245 14.9143L5.65087 12.0858ZM8.4793 14.9143L5.65087 12.0858L2.82245 14.9143L5.65087 17.7427L8.4793 14.9143ZM9.89351 16.3285L8.4793 14.9143L5.65087 17.7427L7.06509 19.1569L9.89351 16.3285ZM8.4793 16.3285C8.86983 15.938 9.50299 15.938 9.89351 16.3285L7.06509 19.1569C8.23666 20.3285 10.1362 20.3285 11.3077 19.1569L8.4793 16.3285ZM9.89351 14.9143L8.4793 16.3285L11.3077 19.1569L12.7219 17.7427L9.89351 14.9143ZM18.3788 6.429L9.89351 14.9143L12.7219 17.7427L21.2072 9.25742L18.3788 6.429Z" fill="#2693FF" mask="url(#path-1-inside-1)"/>
<rect x="1" y="1" width="22" height="22" rx="3" stroke="#67CDFF" stroke-width="2"/>
</svg>
