<svg width="24" height="24" viewBox="0 0 24 24" fill="none" xmlns="http://www.w3.org/2000/svg">
<path d="M16 5.5H6C5.72386 5.5 5.5 5.72386 5.5 6C5.5 6.27614 5.72386 6.5 6 6.5H16C16.2761 6.5 16.5 6.27614 16.5 6C16.5 5.72386 16.2761 5.5 16 5.5Z" stroke="#2693FF"/>
<path d="M18 8.5H6C5.72386 8.5 5.5 8.72386 5.5 9C5.5 9.27614 5.72386 9.5 6 9.5H18C18.2761 9.5 18.5 9.27614 18.5 9C18.5 8.72386 18.2761 8.5 18 8.5Z" stroke="#2693FF"/>
<path d="M16 11.5H6C5.72386 11.5 5.5 11.7239 5.5 12C5.5 12.2761 5.72386 12.5 6 12.5H16C16.2761 12.5 16.5 12.2761 16.5 12C16.5 11.7239 16.2761 11.5 16 11.5Z" stroke="#2693FF"/>
<path d="M5 17C2.79086 17 1 15.2091 1 13V5C1 2.79086 2.79086 1 5 1H19C21.2091 1 23 2.79086 23 5V13C23 15.2091 21.2091 17 19 17H13L7 23V17H5Z" stroke="#67CDFF" stroke-width="2" stroke-linecap="round" stroke-linejoin="round"/>
</svg>
