<svg width="24" height="24" viewBox="0 0 24 24" fill="none" xmlns="http://www.w3.org/2000/svg">
<path d="M2 5V10C2 11.6569 6.47715 13 12 13C17.5228 13 22 11.6569 22 10V5" stroke="#67CDFF" stroke-width="2"/>
<path d="M2 10V15C2 16.6569 6.47715 18 12 18C17.5228 18 22 16.6569 22 15V10" stroke="#67CDFF" stroke-width="2"/>
<path d="M2 15V20C2 21.6569 6.47715 23 12 23C17.5228 23 22 21.6569 22 20V15" stroke="#67CDFF" stroke-width="2"/>
<path fill-rule="evenodd" clip-rule="evenodd" d="M12 8C17.5228 8 22 6.65685 22 5C22 3.34315 17.5228 2 12 2C6.47715 2 2 3.34315 2 5C2 6.65685 6.47715 8 12 8Z" stroke="#2693FF" stroke-width="2"/>
</svg>
