<svg width="28" height="28" viewBox="0 0 28 28" fill="none" xmlns="http://www.w3.org/2000/svg">
<mask id="path-1-inside-1" fill="white">
<path fill-rule="evenodd" clip-rule="evenodd" d="M13.7202 17.9835L20.3787 24.6421L24.6214 20.3995L17.9628 13.7409L19.377 12.3267L26.0356 18.9853C26.8166 19.7663 26.8166 21.0326 26.0356 21.8137L21.793 26.0563C21.0119 26.8374 19.7456 26.8374 18.9645 26.0563L12.3059 19.3977L13.7202 17.9835ZM1.96451 9.0563C1.18346 8.27526 1.18346 7.00893 1.96451 6.22788L6.20715 1.98524C6.9882 1.20419 8.25453 1.20419 9.03557 1.98524L15.6942 8.64382L14.2799 10.058L7.62136 3.39945L3.37872 7.64209L10.0373 14.3007L8.6231 15.7149L1.96451 9.0563Z"/>
</mask>
<path d="M20.3787 24.6421L18.9645 26.0563L20.3787 27.4705L21.793 26.0563L20.3787 24.6421ZM13.7202 17.9835L15.1344 16.5693L13.7202 15.1551L12.3059 16.5693L13.7202 17.9835ZM24.6214 20.3995L26.0356 21.8137L27.4498 20.3995L26.0356 18.9853L24.6214 20.3995ZM17.9628 13.7409L16.5486 12.3267L15.1344 13.7409L16.5486 15.1551L17.9628 13.7409ZM19.377 12.3267L20.7912 10.9125L19.377 9.49825L17.9628 10.9125L19.377 12.3267ZM12.3059 19.3977L10.8917 17.9835L9.47752 19.3977L10.8917 20.812L12.3059 19.3977ZM15.6942 8.64382L17.1084 10.058L18.5226 8.64382L17.1084 7.22961L15.6942 8.64382ZM14.2799 10.058L12.8657 11.4723L14.2799 12.8865L15.6942 11.4723L14.2799 10.058ZM7.62136 3.39945L9.03557 1.98524L7.62136 0.571022L6.20715 1.98524L7.62136 3.39945ZM3.37872 7.64209L1.96451 6.22788L0.550294 7.64209L1.96451 9.0563L3.37872 7.64209ZM10.0373 14.3007L11.4515 15.7149L12.8657 14.3007L11.4515 12.8865L10.0373 14.3007ZM8.6231 15.7149L7.20888 17.1291L8.6231 18.5433L10.0373 17.1291L8.6231 15.7149ZM21.793 23.2279L15.1344 16.5693L12.3059 19.3977L18.9645 26.0563L21.793 23.2279ZM23.2072 18.9853L18.9645 23.2279L21.793 26.0563L26.0356 21.8137L23.2072 18.9853ZM16.5486 15.1551L23.2072 21.8137L26.0356 18.9853L19.377 12.3267L16.5486 15.1551ZM17.9628 10.9125L16.5486 12.3267L19.377 15.1551L20.7912 13.7409L17.9628 10.9125ZM27.4498 17.571L20.7912 10.9125L17.9628 13.7409L24.6214 20.3995L27.4498 17.571ZM27.4498 23.2279C29.0119 21.6658 29.0119 19.1331 27.4498 17.571L24.6214 20.3995L24.6214 20.3995L27.4498 23.2279ZM23.2072 27.4705L27.4498 23.2279L24.6214 20.3995L20.3787 24.6421L23.2072 27.4705ZM17.5503 27.4705C19.1124 29.0326 21.6451 29.0326 23.2072 27.4705L20.3787 24.6421L17.5503 27.4705ZM10.8917 20.812L17.5503 27.4705L20.3787 24.6421L13.7202 17.9835L10.8917 20.812ZM12.3059 16.5693L10.8917 17.9835L13.7202 20.812L15.1344 19.3977L12.3059 16.5693ZM0.550293 4.81366C-1.01181 6.37576 -1.0118 8.90842 0.550294 10.4705L3.37872 7.64209L3.37872 7.64209L0.550293 4.81366ZM4.79293 0.571022L0.550293 4.81366L3.37872 7.64209L7.62136 3.39945L4.79293 0.571022ZM10.4498 0.571022C8.88769 -0.991075 6.35503 -0.991075 4.79293 0.571022L7.62136 3.39945L10.4498 0.571022ZM17.1084 7.22961L10.4498 0.571022L7.62136 3.39945L14.2799 10.058L17.1084 7.22961ZM15.6942 11.4723L17.1084 10.058L14.2799 7.22961L12.8657 8.64382L15.6942 11.4723ZM6.20715 4.81366L12.8657 11.4723L15.6942 8.64382L9.03557 1.98524L6.20715 4.81366ZM4.79293 9.0563L9.03557 4.81366L6.20715 1.98524L1.96451 6.22788L4.79293 9.0563ZM11.4515 12.8865L4.79293 6.22788L1.96451 9.0563L8.6231 15.7149L11.4515 12.8865ZM10.0373 17.1291L11.4515 15.7149L8.6231 12.8865L7.20888 14.3007L10.0373 17.1291ZM0.550294 10.4705L7.20888 17.1291L10.0373 14.3007L3.37872 7.64209L0.550294 10.4705Z" fill="#2693FF" mask="url(#path-1-inside-1)"/>
<rect x="8.10754" y="7.76001" width="2.47917" height="0.520833" transform="rotate(-45 8.10754 7.76001)" stroke="#2693FF" stroke-width="0.520833"/>
<rect x="10.317" y="9.96973" width="2.47917" height="0.520833" transform="rotate(-45 10.317 9.96973)" stroke="#2693FF" stroke-width="0.520833"/>
<rect x="16.9464" y="16.5989" width="2.47917" height="0.520833" transform="rotate(-45 16.9464 16.5989)" stroke="#2693FF" stroke-width="0.520833"/>
<rect x="19.1559" y="18.8086" width="2.47917" height="0.520833" transform="rotate(-45 19.1559 18.8086)" stroke="#2693FF" stroke-width="0.520833"/>
<path d="M21.1152 4.07713C21.5057 3.68661 22.1388 3.68661 22.5294 4.07713L23.9436 5.49134C24.3341 5.88187 24.3341 6.51503 23.9436 6.90556L8.64478 22.2044L5.26638 22.7543L5.81635 19.3759L21.1152 4.07713Z" stroke="#67CDFF" stroke-width="2"/>
<rect x="19.6128" y="4.87263" width="5" height="1.08333" transform="rotate(45 19.6128 4.87263)" fill="#D8D8D8" stroke="#67CDFF"/>
</svg>
