<svg width="24" height="24" viewBox="0 0 24 24" fill="none" xmlns="http://www.w3.org/2000/svg">
<path d="M6 9H4V11H6V9Z" fill="#67CDFF"/>
<path d="M3 9H1V11H3V9Z" fill="#67CDFF"/>
<path d="M9 9H7V11H9V9Z" fill="#67CDFF"/>
<path d="M12 9H10V11H12V9Z" fill="#67CDFF"/>
<path d="M6 6H4V8H6V6Z" fill="#67CDFF"/>
<path d="M9 6H7V8H9V6Z" fill="#67CDFF"/>
<path d="M12 6H10V8H12V6Z" fill="#67CDFF"/>
<path d="M12 3H10V5H12V3Z" fill="#67CDFF"/>
<path d="M15 9H13V11H15V9Z" fill="#67CDFF"/>
<path fill-rule="evenodd" clip-rule="evenodd" d="M18.5 9C19.5 9.89543 20 10.8954 20 12C20 12.3512 19.9698 12.6884 19.9144 13.0016L20 13C21.1046 13 22.1046 13.5 23 14.5C22.1046 15.5 21.1046 16 20 16C19.4741 16 18.9798 15.9323 18.5501 15.8135C17.37 19.4063 13.9879 22 10 22C5.02944 22 1 17.9706 1 13L17.0855 13.0006C17.0301 12.6877 17 12.3509 17 12C17 10.8954 17.5 9.89543 18.5 9Z" stroke="#2693FF" stroke-width="2" stroke-linecap="round" stroke-linejoin="round"/>
<path d="M6.5 18C7.32843 18 8 17.3284 8 16.5C8 15.6716 7.32843 15 6.5 15C5.67157 15 5 15.6716 5 16.5C5 17.3284 5.67157 18 6.5 18Z" fill="#67CDFF"/>
</svg>
