<svg width="24" height="24" viewBox="0 0 24 24" fill="none" xmlns="http://www.w3.org/2000/svg">
<path d="M18.2474 3.25172C16.7813 1.87904 14.5276 1 12.0002 1C8.86399 1 6.14931 2.35347 4.83789 4.32409" stroke="#67CDFF" stroke-width="2" stroke-linecap="round" stroke-linejoin="round"/>
<path d="M18.7129 8.64644C17.2865 6.45156 14.8128 5 12.0001 5C8.94725 5 6.2938 6.70999 4.94531 9.2244M19.153 16.5866C19.695 15.5078 20.0001 14.2896 20.0001 13C20.0001 12.2557 19.8985 11.5352 19.7083 10.8516L19.153 16.5866Z" stroke="#67CDFF" stroke-width="2" stroke-linecap="round" stroke-linejoin="round"/>
<path d="M17.5 20C15.8333 18.6667 15.1644 16.9834 15.4931 14.9503C15.816 14.3733 16 13.7082 16 13C16 10.7909 14.2091 9 12 9C10.4934 9 9.18132 9.83295 8.49919 11.0635C7.1664 13.2882 5.83333 14.5839 4.5 14.9503" stroke="#67CDFF" stroke-width="2" stroke-linecap="round" stroke-linejoin="round"/>
<path d="M12 13C9.66667 16 7.33333 18.3333 5 20" stroke="#67CDFF" stroke-width="2" stroke-linecap="round" stroke-linejoin="round"/>
<path d="M12.5 18.5C12.5 20.1667 13.1667 21.5 14.5 22.5" stroke="#67CDFF" stroke-width="2" stroke-linecap="round" stroke-linejoin="round"/>
</svg>
