<svg width="24" height="24" viewBox="0 0 24 24" fill="none" xmlns="http://www.w3.org/2000/svg">
<path fill-rule="evenodd" clip-rule="evenodd" d="M13 6H19V12L13 6Z" fill="#67CDFF"/>
<path fill-rule="evenodd" clip-rule="evenodd" d="M13 13H19V19L13 13Z" fill="#2693FF"/>
<path fill-rule="evenodd" clip-rule="evenodd" d="M12 8H17V13L12 8Z" fill="#67CDFF"/>
<path fill-rule="evenodd" clip-rule="evenodd" d="M12 16H17V21L12 16Z" fill="#67CDFF"/>
<path fill-rule="evenodd" clip-rule="evenodd" d="M4 10H10V16L4 10Z" fill="#67CDFF"/>
<path fill-rule="evenodd" clip-rule="evenodd" d="M3 4H10V11L3 4Z" fill="#67CDFF"/>
<path fill-rule="evenodd" clip-rule="evenodd" d="M16 7L9 0V7H16Z" fill="#67CDFF"/>
<path fill-rule="evenodd" clip-rule="evenodd" d="M4 2H10V8L4 2Z" fill="#2693FF"/>
<path fill-rule="evenodd" clip-rule="evenodd" d="M19 15L12 8V15H19Z" fill="#2693FF"/>
<path fill-rule="evenodd" clip-rule="evenodd" d="M21 23L15 17V23H21Z" fill="#67CDFF"/>
<path fill-rule="evenodd" clip-rule="evenodd" d="M19 23L12 16V23H19Z" fill="#2693FF"/>
<path fill-rule="evenodd" clip-rule="evenodd" d="M3 16H10V23L3 16Z" fill="#67CDFF"/>
</svg>
