<svg width="24" height="24" viewBox="0 0 24 24" fill="none" xmlns="http://www.w3.org/2000/svg">
<mask id="path-1-inside-1" fill="white">
<path fill-rule="evenodd" clip-rule="evenodd" d="M0 4C0 2.89543 0.895431 2 2 2H8C9.10457 2 10 2.89543 10 4H22C23.1046 4 24 4.89543 24 6V20C24 21.1046 23.1046 22 22 22H2C0.89543 22 0 21.1046 0 20V6V4ZM10 6H8H2L2 20H22V6H10Z"/>
</mask>
<path d="M10 4H8V6H10V4ZM2 6V4H6.81196e-08L0 6H2ZM2 20H-4.76837e-07L-5.44957e-07 22H2V20ZM22 20V22H24V20H22ZM22 6H24V4H22V6ZM2 0C-0.209139 0 -2 1.79086 -2 4H2V0ZM8 0H2V4H8V0ZM12 4C12 1.79086 10.2091 0 8 0V4H12ZM22 2H10V6H22V2ZM26 6C26 3.79086 24.2091 2 22 2V6H26ZM26 20V6H22V20H26ZM22 24C24.2091 24 26 22.2091 26 20H22V24ZM2 24H22V20H2V24ZM-2 20C-2 22.2091 -0.20914 24 2 24V20H2H-2ZM-2 6V20H2V6H-2ZM-2 4V6H2V4H-2ZM10 4H8V8H10V4ZM8 4H2V8H8V4ZM0 6L-4.76837e-07 20H4L4 6H0ZM2 22H22V18H2V22ZM24 20V6H20V20H24ZM22 4H10V8H22V4Z" fill="#67CDFF" mask="url(#path-1-inside-1)"/>
<rect x="6" y="11" width="12" height="4" rx="1" fill="#2693FF"/>
</svg>
