<svg width="24" height="24" viewBox="0 0 24 24" fill="none" xmlns="http://www.w3.org/2000/svg">
<rect x="7" y="7" width="2" height="8" fill="#67CDFF"/>
<path fill-rule="evenodd" clip-rule="evenodd" d="M17 1C17 0.447715 17.4477 0 18 0L19 0C19.5523 0 20 0.447715 20 1V9C20 9.55228 19.5523 10 19 10H18C17.4477 10 17 9.55229 17 9V1Z" fill="#67CDFF"/>
<rect x="7" y="15" width="2" height="8" stroke="#2693FF" stroke-width="2" stroke-linecap="round" stroke-linejoin="round"/>
<path d="M4 5H12V6C12 6.55228 11.5523 7 11 7H5C4.44772 7 4 6.55228 4 6V5Z" fill="#67CDFF"/>
<rect x="4" width="2" height="6" rx="1" fill="#67CDFF"/>
<rect x="7" width="2" height="6" rx="1" fill="#67CDFF"/>
<rect x="10" width="2" height="6" rx="1" fill="#67CDFF"/>
<rect x="17" y="8" width="2" height="6" fill="#67CDFF"/>
<rect x="17" y="15" width="2" height="8" stroke="#2693FF" stroke-width="2" stroke-linecap="round" stroke-linejoin="round"/>
</svg>
