<svg width="24" height="24" viewBox="0 0 24 24" fill="none" xmlns="http://www.w3.org/2000/svg">
<rect x="8.5" y="2.5" width="1" height="19" stroke="#67CDFF"/>
<rect x="2.5" y="2.5" width="1" height="19" stroke="#67CDFF"/>
<rect x="20.5" y="2.5" width="1" height="19" stroke="#67CDFF"/>
<rect x="14.5" y="2.5" width="1" height="19" stroke="#67CDFF"/>
<path d="M3 18L9 11.8891" stroke="#67CDFF" stroke-width="2" stroke-linecap="square"/>
<path d="M15 12H9" stroke="#67CDFF" stroke-width="2" stroke-linecap="square"/>
<path d="M21 6L15 12" stroke="#67CDFF" stroke-width="2" stroke-linecap="square"/>
<path d="M3 20C4.10457 20 5 19.1046 5 18C5 16.8954 4.10457 16 3 16C1.89543 16 1 16.8954 1 18C1 19.1046 1.89543 20 3 20Z" fill="#2693FF"/>
<path d="M9 14C10.1046 14 11 13.1046 11 12C11 10.8954 10.1046 10 9 10C7.89543 10 7 10.8954 7 12C7 13.1046 7.89543 14 9 14Z" fill="#2693FF"/>
<path d="M15 14C16.1046 14 17 13.1046 17 12C17 10.8954 16.1046 10 15 10C13.8954 10 13 10.8954 13 12C13 13.1046 13.8954 14 15 14Z" fill="#2693FF"/>
<path d="M21 8C22.1046 8 23 7.10457 23 6C23 4.89543 22.1046 4 21 4C19.8954 4 19 4.89543 19 6C19 7.10457 19.8954 8 21 8Z" fill="#2693FF"/>
</svg>
