<svg width="24" height="24" viewBox="0 0 24 24" fill="none" xmlns="http://www.w3.org/2000/svg">
<path fill-rule="evenodd" clip-rule="evenodd" d="M12 2L21 7V17L12 22L3 17V7L12 2Z" stroke="#67CDFF" stroke-width="2"/>
<path fill-rule="evenodd" clip-rule="evenodd" d="M3 17L12 2L21 17H3Z" stroke="#67CDFF" stroke-width="2" stroke-linecap="round" stroke-linejoin="round"/>
<path fill-rule="evenodd" clip-rule="evenodd" d="M3 9C4.10457 9 5 8.10457 5 7C5 5.89543 4.10457 5 3 5C1.89543 5 1 5.89543 1 7C1 8.10457 1.89543 9 3 9Z" fill="#2693FF"/>
<path fill-rule="evenodd" clip-rule="evenodd" d="M3 19C4.10457 19 5 18.1046 5 17C5 15.8954 4.10457 15 3 15C1.89543 15 1 15.8954 1 17C1 18.1046 1.89543 19 3 19Z" fill="#2693FF"/>
<path fill-rule="evenodd" clip-rule="evenodd" d="M21 19C22.1046 19 23 18.1046 23 17C23 15.8954 22.1046 15 21 15C19.8954 15 19 15.8954 19 17C19 18.1046 19.8954 19 21 19Z" fill="#2693FF"/>
<path fill-rule="evenodd" clip-rule="evenodd" d="M21 9C22.1046 9 23 8.10457 23 7C23 5.89543 22.1046 5 21 5C19.8954 5 19 5.89543 19 7C19 8.10457 19.8954 9 21 9Z" fill="#2693FF"/>
<path fill-rule="evenodd" clip-rule="evenodd" d="M12 4C13.1046 4 14 3.10457 14 2C14 0.89543 13.1046 0 12 0C10.8954 0 10 0.89543 10 2C10 3.10457 10.8954 4 12 4Z" fill="#2693FF"/>
<path fill-rule="evenodd" clip-rule="evenodd" d="M12 24C13.1046 24 14 23.1046 14 22C14 20.8954 13.1046 20 12 20C10.8954 20 10 20.8954 10 22C10 23.1046 10.8954 24 12 24Z" fill="#2693FF"/>
</svg>
