<svg width="24" height="24" viewBox="0 0 24 24" fill="none" xmlns="http://www.w3.org/2000/svg">
<path d="M8 12H10L11.5 10L13.5 14L14.5 12H21" stroke="#2693FF" stroke-linecap="round" stroke-linejoin="round"/>
<path fill-rule="evenodd" clip-rule="evenodd" d="M10.5315 5.46056L10.5234 5.4754L9.57729 4.50672C8.64174 3.54884 7.36573 3 6 3C3.23858 3 1 5.23858 1 8C1 9.36565 1.54879 10.6418 2.49768 11.5691L2.55958 11.6282C2.58052 11.648 2.58052 11.648 2.61141 11.6768L11.9992 20.6183L21.3992 11.6668C21.4203 11.6472 21.4203 11.6472 21.4396 11.629L21.4727 11.5974L21.4933 11.5773C22.4512 10.6417 23 9.36573 23 8C23 5.23858 20.7614 3 18 3C16.6343 3 15.3582 3.54879 14.4143 4.51466L12 6.92933L10.5315 5.46056Z" stroke="#67CDFF" stroke-width="2"/>
</svg>
