<svg width="24" height="24" viewBox="0 0 24 24" fill="none" xmlns="http://www.w3.org/2000/svg">
<path fill-rule="evenodd" clip-rule="evenodd" d="M11 8H13L14 23H10L11 8Z" stroke="#2693FF" stroke-width="2" stroke-linecap="round" stroke-linejoin="round"/>
<path fill-rule="evenodd" clip-rule="evenodd" d="M12 5C12 2.79086 9.76142 1 7 1C4.23858 1 2 2.79086 2 5H12Z" stroke="#67CDFF" stroke-width="2" stroke-linecap="round" stroke-linejoin="round"/>
<path fill-rule="evenodd" clip-rule="evenodd" d="M11.9498 6.8787C10.3877 5.3166 7.53845 5.63318 5.58583 7.5858C3.63321 9.53843 3.31662 12.3877 4.87872 13.9498L11.9498 6.8787Z" stroke="#67CDFF" stroke-width="2" stroke-linecap="round" stroke-linejoin="round"/>
<path fill-rule="evenodd" clip-rule="evenodd" d="M22 5C22 2.79086 19.7614 1 17 1C14.2386 1 12 2.79086 12 5H22Z" stroke="#67CDFF" stroke-width="2" stroke-linecap="round" stroke-linejoin="round"/>
<path fill-rule="evenodd" clip-rule="evenodd" d="M19.1215 13.9498C20.6836 12.3877 20.3671 9.53845 18.4144 7.58583C16.4618 5.63321 13.6126 5.31662 12.0505 6.87872L19.1215 13.9498Z" stroke="#67CDFF" stroke-width="2" stroke-linecap="round" stroke-linejoin="round"/>
</svg>
