<svg width="24" height="24" viewBox="0 0 24 24" fill="none" xmlns="http://www.w3.org/2000/svg">
<mask id="path-1-inside-1" fill="white">
<path fill-rule="evenodd" clip-rule="evenodd" d="M8.39241 15H10H14H15.6076C17.6404 13.7751 19 11.5463 19 9C19 5.13401 15.866 2 12 2C8.13401 2 5 5.13401 5 9C5 11.5463 6.35958 13.7751 8.39241 15ZM8 17.0645C5.03656 15.5918 3 12.5337 3 9C3 4.02944 7.02944 0 12 0C16.9706 0 21 4.02944 21 9C21 12.5337 18.9634 15.5918 16 17.0645V18V20H14H10H8V18V17.0645ZM10 17.777V18H12H14V17.777C13.3568 17.9229 12.6874 18 12 18C11.3126 18 10.6432 17.9229 10 17.777Z"/>
</mask>
<path d="M8.39241 15L7.3602 16.7131L7.83642 17H8.39241V15ZM15.6076 15V17H16.1636L16.6398 16.7131L15.6076 15ZM8 17.0645H10V15.825L8.89007 15.2735L8 17.0645ZM16 17.0645L15.1099 15.2735L14 15.825V17.0645H16ZM16 20V22H18V20H16ZM8 20H6V22H8V20ZM10 17.777L10.4426 15.8266L8 15.2723V17.777H10ZM10 18H8V20H10V18ZM14 18V20H16V18H14ZM14 17.777H16V15.2723L13.5574 15.8266L14 17.777ZM10 13H8.39241V17H10V13ZM14 13H10V17H14V13ZM15.6076 13H14V17H15.6076V13ZM16.6398 16.7131C19.2482 15.1413 21 12.2762 21 9H17C17 10.8164 16.0326 12.4089 14.5754 13.287L16.6398 16.7131ZM21 9C21 4.02944 16.9706 0 12 0V4C14.7614 4 17 6.23858 17 9H21ZM12 0C7.02944 0 3 4.02944 3 9H7C7 6.23858 9.23858 4 12 4V0ZM3 9C3 12.2762 4.75179 15.1413 7.3602 16.7131L9.42462 13.287C7.96738 12.4089 7 10.8164 7 9H3ZM8.89007 15.2735C6.58032 14.1256 5 11.7455 5 9H1C1 13.3219 3.4928 17.0579 7.10993 18.8555L8.89007 15.2735ZM5 9C5 5.13401 8.13401 2 12 2V-2C5.92487 -2 1 2.92487 1 9H5ZM12 2C15.866 2 19 5.13401 19 9H23C23 2.92487 18.0751 -2 12 -2V2ZM19 9C19 11.7455 17.4197 14.1256 15.1099 15.2735L16.8901 18.8555C20.5072 17.0579 23 13.3219 23 9H19ZM18 18V17.0645H14V18H18ZM18 20V18H14V20H18ZM14 22H16V18H14V22ZM10 22H14V18H10V22ZM8 22H10V18H8V22ZM6 18V20H10V18H6ZM6 17.0645V18H10V17.0645H6ZM8 17.777V18H12V17.777H8ZM10 20H12V16H10V20ZM12 20H14V16H12V20ZM16 18V17.777H12V18H16ZM13.5574 15.8266C13.0584 15.9398 12.5375 16 12 16V20C12.8373 20 13.6551 19.9061 14.4426 19.7274L13.5574 15.8266ZM12 16C11.4625 16 10.9416 15.9398 10.4426 15.8266L9.55743 19.7274C10.3449 19.9061 11.1627 20 12 20V16Z" fill="#67CDFF" mask="url(#path-1-inside-1)"/>
<path d="M9 19H15V21C15 21.5523 14.5523 22 14 22H10C9.44772 22 9 21.5523 9 21V19Z" stroke="#2693FF" stroke-width="2"/>
<mask id="path-4-inside-2" fill="white">
<rect x="10" y="21" width="4" height="3" rx="1"/>
</mask>
<rect x="10" y="21" width="4" height="3" rx="1" stroke="#2693FF" stroke-width="3" mask="url(#path-4-inside-2)"/>
</svg>
