<svg width="24" height="24" viewBox="0 0 24 24" fill="none" xmlns="http://www.w3.org/2000/svg">
<path fill-rule="evenodd" clip-rule="evenodd" d="M12 22C17.5228 22 22 17.5228 22 12C22 6.47715 17.5228 2 12 2C6.47715 2 2 6.47715 2 12C2 17.5228 6.47715 22 12 22Z" stroke="#67CDFF" stroke-width="2"/>
<rect x="20" y="10" width="4" height="4" fill="#2693FF"/>
<rect y="10" width="4" height="4" fill="#2693FF"/>
<rect x="10" width="4" height="4" fill="#2693FF"/>
<rect x="10" y="20" width="4" height="4" fill="#2693FF"/>
<rect x="4" y="2" width="16" height="1" fill="#2693FF"/>
<rect x="3" y="1" width="3" height="3" fill="#2693FF"/>
<rect x="18" y="1" width="3" height="3" fill="#2693FF"/>
<path fill-rule="evenodd" clip-rule="evenodd" d="M9 8L17 12L9 16V8Z" fill="#2693FF"/>
</svg>
