<svg width="24" height="24" viewBox="0 0 24 24" fill="none" xmlns="http://www.w3.org/2000/svg">
<path d="M9.66 14.248C9.66 14.98 9.567 15.646 9.381 16.246C9.201 16.846 8.925 17.362 8.553 17.794C8.187 18.22 7.725 18.553 7.167 18.793C6.609 19.027 5.952 19.144 5.196 19.144C4.854 19.144 4.515 19.126 4.179 19.09C3.849 19.054 3.504 18.994 3.144 18.91L3.306 17.137C3.318 16.981 3.378 16.855 3.486 16.759C3.6 16.663 3.756 16.615 3.954 16.615C4.056 16.615 4.182 16.633 4.332 16.669C4.482 16.699 4.662 16.714 4.872 16.714C5.166 16.714 5.421 16.675 5.637 16.597C5.859 16.513 6.042 16.378 6.186 16.192C6.33 16 6.438 15.751 6.51 15.445C6.582 15.139 6.618 14.761 6.618 14.311V5.887H9.66V14.248ZM19.1224 8.551C19.0324 8.695 18.9364 8.803 18.8344 8.875C18.7384 8.947 18.6124 8.983 18.4564 8.983C18.3184 8.983 18.1684 8.941 18.0064 8.857C17.8504 8.767 17.6704 8.668 17.4664 8.56C17.2684 8.452 17.0404 8.356 16.7824 8.272C16.5244 8.182 16.2304 8.137 15.9004 8.137C15.3304 8.137 14.9044 8.26 14.6224 8.506C14.3464 8.746 14.2084 9.073 14.2084 9.487C14.2084 9.751 14.2924 9.97 14.4604 10.144C14.6284 10.318 14.8474 10.468 15.1174 10.594C15.3934 10.72 15.7054 10.837 16.0534 10.945C16.4074 11.047 16.7674 11.164 17.1334 11.296C17.4994 11.422 17.8564 11.572 18.2044 11.746C18.5584 11.92 18.8704 12.142 19.1404 12.412C19.4164 12.682 19.6384 13.012 19.8064 13.402C19.9744 13.786 20.0584 14.251 20.0584 14.797C20.0584 15.403 19.9534 15.97 19.7434 16.498C19.5334 17.026 19.2274 17.488 18.8254 17.884C18.4294 18.274 17.9374 18.583 17.3494 18.811C16.7674 19.033 16.1044 19.144 15.3604 19.144C14.9524 19.144 14.5354 19.102 14.1094 19.018C13.6894 18.934 13.2814 18.817 12.8854 18.667C12.4894 18.511 12.1174 18.328 11.7694 18.118C11.4214 17.908 11.1184 17.674 10.8604 17.416L11.7604 15.994C11.8264 15.886 11.9194 15.799 12.0394 15.733C12.1594 15.667 12.2884 15.634 12.4264 15.634C12.6064 15.634 12.7864 15.691 12.9664 15.805C13.1524 15.919 13.3594 16.045 13.5874 16.183C13.8214 16.321 14.0884 16.447 14.3884 16.561C14.6884 16.675 15.0424 16.732 15.4504 16.732C16.0024 16.732 16.4314 16.612 16.7374 16.372C17.0434 16.126 17.1964 15.739 17.1964 15.211C17.1964 14.905 17.1124 14.656 16.9444 14.464C16.7764 14.272 16.5544 14.113 16.2784 13.987C16.0084 13.861 15.6994 13.75 15.3514 13.654C15.0034 13.558 14.6464 13.453 14.2804 13.339C13.9144 13.219 13.5574 13.075 13.2094 12.907C12.8614 12.733 12.5494 12.508 12.2734 12.232C12.0034 11.95 11.7844 11.602 11.6164 11.188C11.4484 10.768 11.3644 10.252 11.3644 9.64C11.3644 9.148 11.4634 8.668 11.6614 8.2C11.8594 7.732 12.1504 7.315 12.5344 6.949C12.9184 6.583 13.3894 6.292 13.9474 6.076C14.5054 5.854 15.1444 5.743 15.8644 5.743C16.2664 5.743 16.6564 5.776 17.0344 5.842C17.4184 5.902 17.7814 5.995 18.1234 6.121C18.4654 6.241 18.7834 6.388 19.0774 6.562C19.3774 6.73 19.6444 6.922 19.8784 7.138L19.1224 8.551Z" fill="#67CDFF"/>
</svg>
