<svg width="25" height="24" viewBox="0 0 25 24" fill="none" xmlns="http://www.w3.org/2000/svg">
<path fill-rule="evenodd" clip-rule="evenodd" d="M6.7672 5.69842C7.14717 5.25513 7.70186 5 8.28571 5L21.3658 5C22.4704 5 23.3658 5.89543 23.3658 7V17C23.3658 18.1046 22.4704 19 21.3658 19H8.28571C7.70186 19 7.14717 18.7449 6.7672 18.3016L2.48149 13.3016C1.8395 12.5526 1.8395 11.4474 2.48149 10.6984L6.7672 5.69842Z" stroke="#67CDFF" stroke-width="2" stroke-linecap="round" stroke-linejoin="round"/>
<path fill-rule="evenodd" clip-rule="evenodd" d="M7.36572 14C8.47029 14 9.36572 13.1046 9.36572 12C9.36572 10.8954 8.47029 10 7.36572 10C6.26115 10 5.36572 10.8954 5.36572 12C5.36572 13.1046 6.26115 14 7.36572 14Z" fill="#2693FF"/>
</svg>
