<svg width="24" height="24" viewBox="0 0 24 24" fill="none" xmlns="http://www.w3.org/2000/svg">
<mask id="path-1-inside-1" fill="white">
<path fill-rule="evenodd" clip-rule="evenodd" d="M4 2H20C21.1046 2 22 2.89543 22 4V14C22 15.1046 21.1046 16 20 16H13H10.1716H7H5H4C2.89543 16 2 15.1046 2 14V4C2 2.89543 2.89543 2 4 2ZM5 18H4C1.79086 18 0 16.2091 0 14V4C0 1.79086 1.79086 0 4 0H20C22.2091 0 24 1.79086 24 4V14C24 16.2091 22.2091 18 20 18H11L6.70711 22.2929C6.07714 22.9229 5 22.4767 5 21.5858V18ZM8.17157 18H7V19.1716L8.17157 18Z"/>
</mask>
<path d="M5 18H7V16H5V18ZM11 18V16H10.1716L9.58579 16.5858L11 18ZM6.70711 22.2929L5.29289 20.8787L6.70711 22.2929ZM8.17157 18L9.58579 19.4142L13 16H8.17157V18ZM7 18V16H5V18H7ZM7 19.1716H5V24L8.41421 20.5858L7 19.1716ZM20 0H4V4H20V0ZM24 4C24 1.79086 22.2091 0 20 0V4H24ZM24 14V4H20V14H24ZM20 18C22.2091 18 24 16.2091 24 14H20V18ZM13 18H20V14H13V18ZM13 14H10.1716V18H13V14ZM10.1716 14H7V18H10.1716V14ZM7 14H5V18H7V14ZM4 18H5V14H4V18ZM0 14C0 16.2091 1.79086 18 4 18V14H4H0ZM0 4V14H4V4H0ZM4 0C1.79086 0 0 1.79086 0 4H4V4V0ZM4 20H5V16H4V20ZM-2 14C-2 17.3137 0.686292 20 4 20V16C2.89543 16 2 15.1046 2 14H-2ZM-2 4V14H2V4H-2ZM4 -2C0.686292 -2 -2 0.686291 -2 4H2C2 2.89543 2.89543 2 4 2V-2ZM20 -2H4V2H20V-2ZM26 4C26 0.686292 23.3137 -2 20 -2V2C21.1046 2 22 2.89543 22 4H26ZM26 14V4H22V14H26ZM20 20C23.3137 20 26 17.3137 26 14H22C22 15.1046 21.1046 16 20 16V20ZM11 20H20V16H11V20ZM8.12132 23.7071L12.4142 19.4142L9.58579 16.5858L5.29289 20.8787L8.12132 23.7071ZM3 21.5858C3 24.2585 6.23142 25.597 8.12132 23.7071L5.29289 20.8787C5.92286 20.2487 7 20.6949 7 21.5858H3ZM3 18V21.5858H7V18H3ZM8.17157 16H7V20H8.17157V16ZM5 18V19.1716H9V18H5ZM8.41421 20.5858L9.58579 19.4142L6.75736 16.5858L5.58579 17.7574L8.41421 20.5858Z" fill="#67CDFF" mask="url(#path-1-inside-1)"/>
<path d="M10.7246 6.172V7.212H8.33262V8.572H10.1646V9.572H8.33262V10.96H10.7246V12H6.97262V6.172H10.7246ZM12.6525 6.172C12.7112 6.172 12.7605 6.17467 12.8005 6.18C12.8405 6.18533 12.8765 6.196 12.9085 6.212C12.9405 6.22533 12.9712 6.24533 13.0005 6.272C13.0298 6.29867 13.0632 6.33467 13.1005 6.38L15.8685 9.88C15.8578 9.768 15.8498 9.66 15.8445 9.556C15.8392 9.44933 15.8365 9.34933 15.8365 9.256V6.172H17.0285V12H16.3245C16.2205 12 16.1325 11.984 16.0605 11.952C15.9885 11.92 15.9192 11.8613 15.8525 11.776L13.1045 8.304C13.1125 8.40533 13.1192 8.50533 13.1245 8.604C13.1298 8.7 13.1325 8.79067 13.1325 8.876V12H11.9405V6.172H12.6525Z" fill="#2693FF"/>
</svg>
