<svg width="24" height="24" viewBox="0 0 24 24" fill="none" xmlns="http://www.w3.org/2000/svg">
<path fill-rule="evenodd" clip-rule="evenodd" d="M8.13219 23C7.42966 23 6.77865 22.6314 6.4172 22.029L1.40151 13.6695C1.16543 13.276 1.22743 12.7724 1.5519 12.4479L2.2927 11.7071C2.68323 11.3166 3.31639 11.3166 3.70692 11.7071L6.99981 15L4.2244 3.89838C4.09767 3.39145 4.3826 2.8724 4.87832 2.70716L6.08561 2.30473C6.59589 2.13464 7.1493 2.39866 7.33817 2.90229L9.99981 10L10.901 1.88957C10.9572 1.38313 11.3853 1 11.8949 1H12.9998C13.5521 1 13.9998 1.44772 13.9998 2V10L15.7379 3.04763C15.8792 2.48252 16.4717 2.15728 17.0243 2.34149L18.1442 2.7148C18.6303 2.87685 18.9153 3.38017 18.8042 3.88041L16.9998 12L20.4948 7.63127C20.7894 7.26306 21.3011 7.15066 21.7229 7.36153L22.1946 7.59739C22.6523 7.82626 22.8634 8.36377 22.6837 8.84294L19.9998 16L18.4143 21.5494C18.1689 22.408 17.3842 23 16.4912 23H8.13219Z" stroke="#67CDFF" stroke-width="2" stroke-linecap="round" stroke-linejoin="round"/>
</svg>
