<svg width="24" height="24" viewBox="0 0 24 24" fill="none" xmlns="http://www.w3.org/2000/svg">
<path fill-rule="evenodd" clip-rule="evenodd" d="M12 1L21 7V17L12 23L3 17V7L12 1Z" stroke="#67CDFF" stroke-width="2" stroke-linecap="round" stroke-linejoin="round"/>
<path d="M10.44 12.832C10.44 13.32 10.378 13.764 10.254 14.164C10.134 14.564 9.95 14.908 9.702 15.196C9.458 15.48 9.15 15.702 8.778 15.862C8.406 16.018 7.968 16.096 7.464 16.096C7.236 16.096 7.01 16.084 6.786 16.06C6.566 16.036 6.336 15.996 6.096 15.94L6.204 14.758C6.212 14.654 6.252 14.57 6.324 14.506C6.4 14.442 6.504 14.41 6.636 14.41C6.704 14.41 6.788 14.422 6.888 14.446C6.988 14.466 7.108 14.476 7.248 14.476C7.444 14.476 7.614 14.45 7.758 14.398C7.906 14.342 8.028 14.252 8.124 14.128C8.22 14 8.292 13.834 8.34 13.63C8.388 13.426 8.412 13.174 8.412 12.874V7.258H10.44V12.832ZM16.7483 9.034C16.6883 9.13 16.6243 9.202 16.5563 9.25C16.4923 9.298 16.4083 9.322 16.3043 9.322C16.2123 9.322 16.1123 9.294 16.0043 9.238C15.9003 9.178 15.7803 9.112 15.6443 9.04C15.5123 8.968 15.3603 8.904 15.1883 8.848C15.0163 8.788 14.8203 8.758 14.6003 8.758C14.2203 8.758 13.9363 8.84 13.7483 9.004C13.5643 9.164 13.4723 9.382 13.4723 9.658C13.4723 9.834 13.5283 9.98 13.6403 10.096C13.7523 10.212 13.8983 10.312 14.0783 10.396C14.2623 10.48 14.4703 10.558 14.7023 10.63C14.9383 10.698 15.1783 10.776 15.4223 10.864C15.6663 10.948 15.9043 11.048 16.1363 11.164C16.3723 11.28 16.5803 11.428 16.7603 11.608C16.9443 11.788 17.0923 12.008 17.2043 12.268C17.3163 12.524 17.3723 12.834 17.3723 13.198C17.3723 13.602 17.3023 13.98 17.1623 14.332C17.0223 14.684 16.8183 14.992 16.5503 15.256C16.2863 15.516 15.9583 15.722 15.5663 15.874C15.1783 16.022 14.7363 16.096 14.2402 16.096C13.9683 16.096 13.6903 16.068 13.4063 16.012C13.1263 15.956 12.8543 15.878 12.5903 15.778C12.3263 15.674 12.0783 15.552 11.8463 15.412C11.6143 15.272 11.4123 15.116 11.2403 14.944L11.8403 13.996C11.8843 13.924 11.9463 13.866 12.0263 13.822C12.1063 13.778 12.1923 13.756 12.2843 13.756C12.4043 13.756 12.5243 13.794 12.6443 13.87C12.7683 13.946 12.9063 14.03 13.0583 14.122C13.2143 14.214 13.3923 14.298 13.5923 14.374C13.7923 14.45 14.0283 14.488 14.3003 14.488C14.6683 14.488 14.9543 14.408 15.1583 14.248C15.3623 14.084 15.4643 13.826 15.4643 13.474C15.4643 13.27 15.4083 13.104 15.2963 12.976C15.1843 12.848 15.0363 12.742 14.8523 12.658C14.6723 12.574 14.4663 12.5 14.2343 12.436C14.0023 12.372 13.7643 12.302 13.5203 12.226C13.2763 12.146 13.0383 12.05 12.8063 11.938C12.5743 11.822 12.3663 11.672 12.1823 11.488C12.0023 11.3 11.8563 11.068 11.7443 10.792C11.6323 10.512 11.5763 10.168 11.5763 9.76C11.5763 9.432 11.6423 9.112 11.7743 8.8C11.9063 8.488 12.1003 8.21 12.3563 7.966C12.6123 7.722 12.9263 7.528 13.2983 7.384C13.6703 7.236 14.0963 7.162 14.5763 7.162C14.8443 7.162 15.1043 7.184 15.3563 7.228C15.6123 7.268 15.8543 7.33 16.0823 7.414C16.3103 7.494 16.5223 7.592 16.7183 7.708C16.9183 7.82 17.0963 7.948 17.2523 8.092L16.7483 9.034Z" fill="#2693FF"/>
</svg>
