<svg width="24" height="24" viewBox="0 0 24 24" fill="none" xmlns="http://www.w3.org/2000/svg">
<mask id="path-1-inside-1" fill="white">
<path fill-rule="evenodd" clip-rule="evenodd" d="M5 3C3.34315 3 2 4.34315 2 6V10H4V6C4 5.44772 4.44772 5 5 5H8.59508C8.60032 5.0049 8.60633 5.01071 8.61313 5.01755C8.71225 5.11724 8.81772 5.27204 8.99477 5.54466L9.01564 5.57683C9.16276 5.80371 9.37431 6.12993 9.6354 6.39255C9.92791 6.68677 10.3783 7 11 7H19C19.5523 7 20 7.44772 20 8V10H22V8C22 6.34315 20.6569 5 19 5H11.0718C11.0665 4.9951 11.0605 4.98929 11.0537 4.98245C10.9546 4.88276 10.8491 4.72796 10.6721 4.45534L10.6512 4.42317C10.5041 4.19629 10.2925 3.87007 10.0315 3.60745C9.73894 3.31323 9.28854 3 8.66685 3H5Z"/>
</mask>
<path d="M2 10H0V12H2V10ZM4 10V12H6V10H4ZM8.59508 5L9.96024 3.53838L9.38382 3H8.59508V5ZM8.61313 5.01755L10.0315 3.60745L10.0314 3.60744L8.61313 5.01755ZM8.99477 5.54466L10.6726 4.45611L10.6721 4.45534L8.99477 5.54466ZM9.01564 5.57683L10.6937 4.48867L10.6935 4.48828L9.01564 5.57683ZM9.6354 6.39255L8.21707 7.80264L8.21707 7.80264L9.6354 6.39255ZM20 10H18V12H20V10ZM22 10V12H24V10H22ZM11.0718 5L9.70659 6.4616L10.283 7H11.0718V5ZM11.0537 4.98245L12.4721 3.5724L12.472 3.57236L11.0537 4.98245ZM10.6721 4.45534L8.99426 5.54388L8.99477 5.54465L10.6721 4.45534ZM10.6512 4.42317L8.97315 5.51133L8.97339 5.51171L10.6512 4.42317ZM10.0315 3.60745L8.61313 5.01754L8.61314 5.01755L10.0315 3.60745ZM4 6C4 5.44772 4.44772 5 5 5V1C2.23858 1 0 3.23858 0 6H4ZM4 10V6H0V10H4ZM4 8H2V12H4V8ZM2 6V10H6V6H2ZM5 3C3.34315 3 2 4.34315 2 6H6C6 6.55228 5.55228 7 5 7V3ZM8.59508 3H5V7H8.59508V3ZM10.0314 3.60744C10.0081 3.58401 9.98443 3.56097 9.96024 3.53838L7.22991 6.46162C7.21622 6.44883 7.20452 6.43741 7.19482 6.42765L10.0314 3.60744ZM10.6721 4.45534C10.5305 4.23736 10.3074 3.88502 10.0315 3.60745L7.19481 6.42764C7.16253 6.39517 7.14269 6.37127 7.13628 6.36336C7.13025 6.35594 7.1331 6.35891 7.14729 6.37877C7.16138 6.3985 7.1817 6.4279 7.21116 6.47203C7.2405 6.51595 7.27493 6.56849 7.31745 6.63397L10.6721 4.45534ZM10.6935 4.48828L10.6726 4.45611L7.31695 6.6332L7.33782 6.66537L10.6935 4.48828ZM11.0537 4.98246C11.0195 4.94807 10.9679 4.88786 10.8997 4.79421C10.8317 4.70083 10.7693 4.60517 10.6937 4.48867L7.33757 6.66499C7.47026 6.86961 7.78711 7.37016 8.21707 7.80264L11.0537 4.98246ZM11 5C11.0145 5 11.0345 5.00207 11.0563 5.00757C11.0772 5.01286 11.0919 5.01932 11.099 5.02296C11.1055 5.02626 11.104 5.02625 11.0948 5.01929C11.0855 5.01222 11.0715 5.00038 11.0537 4.98245L8.21707 7.80264C8.71797 8.30646 9.64831 9 11 9V5ZM19 5H11V9H19V5ZM22 8C22 6.34315 20.6569 5 19 5V9C18.4477 9 18 8.55229 18 8H22ZM22 10V8H18V10H22ZM22 8H20V12H22V8ZM20 8V10H24V8H20ZM19 7C19.5523 7 20 7.44772 20 8H24C24 5.23858 21.7614 3 19 3V7ZM11.0718 7H19V3H11.0718V7ZM9.63536 6.39251C9.65876 6.41604 9.68249 6.43908 9.70659 6.4616L12.437 3.5384C12.4506 3.55112 12.4623 3.56254 12.4721 3.5724L9.63536 6.39251ZM8.99477 5.54465C9.13634 5.76264 9.35944 6.11498 9.63539 6.39254L12.472 3.57236C12.5043 3.60483 12.5242 3.62873 12.5306 3.63664C12.5366 3.64406 12.5338 3.64109 12.5196 3.62123C12.5055 3.6015 12.4852 3.5721 12.4557 3.52797C12.4264 3.48405 12.3919 3.43151 12.3494 3.36603L8.99477 5.54465ZM8.97339 5.51171L8.99426 5.54388L12.3499 3.3668L12.329 3.33463L8.97339 5.51171ZM8.61314 5.01755C8.64732 5.05193 8.69896 5.11214 8.76714 5.2058C8.83512 5.29917 8.8976 5.39483 8.97315 5.51133L12.3293 3.33501C12.1966 3.13039 11.8797 2.62984 11.4498 2.19736L8.61314 5.01755ZM8.66685 5C8.65235 5 8.63235 4.99793 8.6106 4.99243C8.58969 4.98714 8.57499 4.98068 8.56782 4.97704C8.56131 4.97374 8.56289 4.97374 8.57205 4.9807C8.58136 4.98778 8.59531 4.99962 8.61313 5.01754L11.4498 2.19737C10.9489 1.69354 10.0185 1 8.66685 1V5ZM5 5H8.66685V1H5V5Z" fill="#2693FF" mask="url(#path-1-inside-1)"/>
<path d="M1.31597 10.1414C1.22991 9.53899 1.69737 9 2.30592 9H21.6939C22.3024 9 22.7699 9.53899 22.6838 10.1414L21.2553 20.1414C21.1849 20.6341 20.763 21 20.2653 21H3.73449C3.23684 21 2.81492 20.6341 2.74454 20.1414L1.31597 10.1414Z" stroke="#67CDFF" stroke-width="2"/>
</svg>
