<svg width="24" height="24" viewBox="0 0 24 24" fill="none" xmlns="http://www.w3.org/2000/svg">
<path d="M15.5 16V14.5H16.5V15C16.5 15.8284 17.1716 16.5 18 16.5H19C19.2761 16.5 19.5 16.7239 19.5 17C19.5 17.2761 19.2761 17.5 19 17.5H17C16.1716 17.5 15.5 16.8284 15.5 16Z" fill="#67CDFF" stroke="#67CDFF"/>
<path d="M8.5 16V14.5H7.5V15C7.5 15.8284 6.82843 16.5 6 16.5H5C4.72386 16.5 4.5 16.7239 4.5 17C4.5 17.2761 4.72386 17.5 5 17.5H7C7.82843 17.5 8.5 16.8284 8.5 16Z" fill="#67CDFF" stroke="#67CDFF"/>
<path fill-rule="evenodd" clip-rule="evenodd" d="M15 4H9C7.34315 4 6 5.34315 6 7V11C6 12.6569 7.34315 14 9 14H10V20C10 20.5523 10.4477 21 11 21H13C13.5523 21 14 20.5523 14 20V14H15C16.6569 14 18 12.6569 18 11V7C18 5.34315 16.6569 4 15 4Z" stroke="#67CDFF" stroke-width="2"/>
<path fill-rule="evenodd" clip-rule="evenodd" d="M1 15C3.76142 15 6 12.7614 6 10V6H4C2.34315 6 1 7.34315 1 9V15Z" stroke="#67CDFF" stroke-width="2"/>
<path fill-rule="evenodd" clip-rule="evenodd" d="M23 15C20.2386 15 18 12.7614 18 10V6H20C21.6569 6 23 7.34315 23 9V15Z" stroke="#67CDFF" stroke-width="2"/>
<path d="M9 11C9.55228 11 10 10.5523 10 10C10 9.44772 9.55228 9 9 9C8.44772 9 8 9.44772 8 10C8 10.5523 8.44772 11 9 11Z" fill="#2693FF"/>
<path d="M15 11C15.5523 11 16 10.5523 16 10C16 9.44772 15.5523 9 15 9C14.4477 9 14 9.44772 14 10C14 10.5523 14.4477 11 15 11Z" fill="#2693FF"/>
<path d="M7 7.5H8.5C9.60457 7.5 10.5 8.39543 10.5 9.5V15.5" stroke="#67CDFF"/>
<path d="M17 7.5H15.5C14.3954 7.5 13.5 8.39543 13.5 9.5V15.5" stroke="#67CDFF"/>
</svg>
