<svg width="24" height="24" viewBox="0 0 24 24" fill="none" xmlns="http://www.w3.org/2000/svg">
<path fill-rule="evenodd" clip-rule="evenodd" d="M10 9C14.4183 9 18 7.65685 18 6C18 4.34315 14.4183 3 10 3C5.58172 3 2 4.34315 2 6C2 7.65685 5.58172 9 10 9Z" stroke="#67CDFF" stroke-width="2"/>
<path d="M2 10C2 11.6569 5.58172 13 10 13C14.4183 13 18 11.6569 18 10" stroke="#67CDFF" stroke-width="2"/>
<path d="M2 18C2 19.6569 5.58172 21 10 21C14.4183 21 18 19.6569 18 18" stroke="#67CDFF" stroke-width="2"/>
<path d="M2 14C2 15.6569 5.58172 17 10 17C11.8824 17 13.613 16.7562 14.9794 16.3482" stroke="#67CDFF" stroke-width="2"/>
<path d="M2 7V17" stroke="#67CDFF" stroke-width="2" stroke-linecap="square"/>
<path d="M18 7V12" stroke="#67CDFF" stroke-width="2" stroke-linecap="square"/>
<path d="M18 19C19.6569 19 21 17.6569 21 16C21 14.3431 19.6569 13 18 13C16.3431 13 15 14.3431 15 16C15 17.6569 16.3431 19 18 19Z" stroke="#2693FF" stroke-width="2"/>
<path d="M20.5 18.5L22.5 20.5" stroke="#2693FF" stroke-width="2" stroke-linecap="round"/>
</svg>
