<svg width="24" height="24" viewBox="0 0 24 24" fill="none" xmlns="http://www.w3.org/2000/svg">
<path fill-rule="evenodd" clip-rule="evenodd" d="M8.53566 14.0001C11.2971 18.783 15.0866 21.7649 16.9998 20.6604C18.9129 19.5558 18.2253 14.783 15.4639 10.0001C12.7024 5.21717 8.91294 2.23527 6.99977 3.33984C5.0866 4.44441 5.77424 9.21717 8.53566 14.0001Z" stroke="#67CDFF" stroke-width="2"/>
<path fill-rule="evenodd" clip-rule="evenodd" d="M12 16C17.5228 16 22 14.2091 22 12C22 9.79086 17.5228 8 12 8C6.47715 8 2 9.79086 2 12C2 14.2091 6.47715 16 12 16Z" stroke="#67CDFF" stroke-width="2"/>
<path fill-rule="evenodd" clip-rule="evenodd" d="M15.4643 14.0001C18.2258 9.21722 18.9134 4.44446 17.0002 3.33989C15.0871 2.23532 11.2976 5.21722 8.53613 10.0001C5.77471 14.7831 5.08706 19.5558 7.00023 20.6604C8.9134 21.765 12.7029 18.7831 15.4643 14.0001Z" stroke="#67CDFF" stroke-width="2"/>
<path fill-rule="evenodd" clip-rule="evenodd" d="M12 14C13.1046 14 14 13.1046 14 12C14 10.8954 13.1046 10 12 10C10.8954 10 10 10.8954 10 12C10 13.1046 10.8954 14 12 14Z" fill="#2693FF"/>
</svg>
