<svg width="24" height="24" viewBox="0 0 24 24" fill="none" xmlns="http://www.w3.org/2000/svg">
<path d="M13.6562 13.875L14.8542 15.125" stroke="#67CDFF" stroke-width="2" stroke-linecap="square"/>
<path fill-rule="evenodd" clip-rule="evenodd" d="M4.79199 15.0092V13C4.79199 11.3431 6.13514 10 7.79199 10H9.45866C11.1155 10 12.4587 11.3431 12.4587 13V15.0092H4.79199Z" fill="#67CDFF"/>
<path fill-rule="evenodd" clip-rule="evenodd" d="M8.625 10C10.2128 10 11.5 8.65685 11.5 7C11.5 5.34315 10.2128 4 8.625 4C7.03718 4 5.75 5.34315 5.75 7C5.75 8.65685 7.03718 10 8.625 10Z" fill="#67CDFF"/>
<path fill-rule="evenodd" clip-rule="evenodd" d="M14.8458 17.8087C14.4553 17.4181 14.4553 16.785 14.8458 16.3945L15.9727 15.2675C16.3633 14.877 16.9964 14.877 17.3869 15.2675L21.9831 19.8637C22.3737 20.2542 22.3737 20.8874 21.9831 21.2779L20.8562 22.4049C20.4657 22.7954 19.8325 22.7954 19.442 22.4049L14.8458 17.8087Z" fill="#67CDFF"/>
<path d="M15.2918 8C15.2918 11.9065 12.2674 15 8.62516 15C4.98295 15 1.9585 11.9065 1.9585 8C1.9585 4.09347 4.98295 1 8.62516 1C12.2674 1 15.2918 4.09347 15.2918 8Z" stroke="#2693FF" stroke-width="2"/>
</svg>
