<svg width="24" height="24" viewBox="0 0 24 24" fill="none" xmlns="http://www.w3.org/2000/svg">
<mask id="path-1-inside-1" fill="white">
<path fill-rule="evenodd" clip-rule="evenodd" d="M8.00001 1C8.00001 0.447715 8.44772 0 9.00001 0H15C15.5523 0 16 0.447715 16 1V2C16 2.55228 15.5523 3 15 3V4V9L21.2739 19.4565C22.4737 21.4561 21.0333 24 18.7014 24H5.29858C2.96669 24 1.52636 21.4561 2.7261 19.4565L9.00001 9V4V3C8.44772 3 8.00001 2.55228 8.00001 2V1ZM11 9H13V4H11V9ZM10.1324 11L4.44109 20.4855C4.04117 21.152 4.52128 22 5.29858 22H18.7014C19.4787 22 19.9588 21.152 19.5589 20.4855L13.8676 11H13H11H10.1324Z"/>
</mask>
<path d="M15 3V1H13V3H15ZM15 9H13V9.55397L13.285 10.029L15 9ZM21.2739 19.4565L19.5589 20.4855H19.5589L21.2739 19.4565ZM2.7261 19.4565L1.01111 18.4275H1.01111L2.7261 19.4565ZM9.00001 9L10.715 10.029L11 9.55397V9H9.00001ZM9.00001 3H11V1H9.00001V3ZM13 9V11H15V9H13ZM11 9H9.00001V11H11V9ZM13 4H15V2H13V4ZM11 4V2H9.00001V4H11ZM10.1324 11V9H9.00001L8.4174 9.97101L10.1324 11ZM4.44109 20.4855L2.7261 19.4565L2.7261 19.4565L4.44109 20.4855ZM19.5589 20.4855L17.8439 21.5145L19.5589 20.4855ZM13.8676 11L15.5826 9.97101L15 9H13.8676V11ZM9.00001 -2C7.34315 -2 6.00001 -0.656855 6.00001 1H10C10 1.55228 9.55229 2 9.00001 2V-2ZM15 -2H9.00001V2H15V-2ZM18 1C18 -0.656854 16.6569 -2 15 -2V2C14.4477 2 14 1.55228 14 1H18ZM18 2V1H14V2H18ZM15 5C16.6569 5 18 3.65685 18 2H14C14 1.44772 14.4477 1 15 1V5ZM17 4V3H13V4H17ZM17 9V4H13V9H17ZM22.9889 18.4275L16.715 7.97101L13.285 10.029L19.5589 20.4855L22.9889 18.4275ZM18.7014 26C22.5879 26 24.9885 21.7601 22.9889 18.4275L19.5589 20.4855C19.9588 21.152 19.4787 22 18.7014 22V26ZM5.29858 26H18.7014V22H5.29858V26ZM1.01111 18.4275C-0.988459 21.7601 1.4121 26 5.29858 26V22C4.52128 22 4.04117 21.152 4.44109 20.4855L1.01111 18.4275ZM7.28502 7.97101L1.01111 18.4275L4.44109 20.4855L10.715 10.029L7.28502 7.97101ZM7.00001 4V9H11V4H7.00001ZM7.00001 3V4H11V3H7.00001ZM6.00001 2C6.00001 3.65685 7.34315 5 9.00001 5V1C9.55229 1 10 1.44772 10 2H6.00001ZM6.00001 1V2H10V1H6.00001ZM13 7H11V11H13V7ZM11 4V9H15V4H11ZM11 6H13V2H11V6ZM13 9V4H9.00001V9H13ZM8.4174 9.97101L2.7261 19.4565L6.15607 21.5145L11.8474 12.029L8.4174 9.97101ZM2.7261 19.4565C1.52636 21.4561 2.96669 24 5.29858 24V20C6.07587 20 6.55598 20.848 6.15607 21.5145L2.7261 19.4565ZM5.29858 24H18.7014V20H5.29858V24ZM18.7014 24C21.0333 24 22.4737 21.4561 21.2739 19.4565L17.8439 21.5145C17.444 20.848 17.9241 20 18.7014 20V24ZM21.2739 19.4565L15.5826 9.97101L12.1526 12.029L17.8439 21.5145L21.2739 19.4565ZM13.8676 9H13V13H13.8676V9ZM13 9H11V13H13V9ZM11 9H10.1324V13H11V9Z" fill="#2693FF" mask="url(#path-1-inside-1)"/>
<path fill-rule="evenodd" clip-rule="evenodd" d="M9.71208 14.5039C9.89012 14.1923 10.2215 14 10.5803 14L13.4197 14C13.7785 14 14.1099 14.1923 14.2879 14.5039L17.1451 19.5039C17.526 20.1705 17.0446 21 16.2768 21H7.72318C6.95536 21 6.47399 20.1705 6.85494 19.5039L9.71208 14.5039Z" fill="#67CDFF"/>
</svg>
