<svg width="24" height="24" viewBox="0 0 24 24" fill="none" xmlns="http://www.w3.org/2000/svg">
<path d="M3 6C3 5.44772 3.44772 5 4 5H20C20.5523 5 21 5.44772 21 6V17H3V6Z" stroke="#2693FF" stroke-width="2"/>
<path d="M0 16H24V17C24 18.1046 23.1046 19 22 19H2C0.89543 19 0 18.1046 0 17V16Z" fill="#67CDFF"/>
<path d="M9 16H15V17C15 17.5523 14.5523 18 14 18H10C9.44772 18 9 17.5523 9 17V16Z" fill="#2693FF"/>
<rect x="18" y="11" width="6" height="9" rx="1" fill="#2693FF"/>
<rect x="19" y="12" width="4" height="5" fill="white"/>
<rect x="20" y="18" width="2" height="1" fill="#67CDFF"/>
</svg>
