<svg width="24" height="24" viewBox="0 0 24 24" fill="none" xmlns="http://www.w3.org/2000/svg">
<path fill-rule="evenodd" clip-rule="evenodd" d="M12 7C12.5523 7 13 7.45576 13 8.00247L13.0002 8.10006C13.6385 8.22966 14.2327 8.48086 14.7574 8.82843L14.8267 8.75911C15.1881 8.39773 15.7537 8.36695 16.1479 8.67365L16.2426 8.75736C16.6332 9.14788 16.6275 9.78674 16.2409 10.1733L16.1716 10.2426C16.5191 10.7673 16.7703 11.3615 16.8999 11.9998L16.9975 12C17.5116 12 17.9353 12.3827 17.9933 12.8827L18 13C18 13.5523 17.5442 14 16.9975 14L16.8997 14.0012C16.7701 14.6391 16.519 15.233 16.1716 15.7574L16.2409 15.8267C16.6023 16.1881 16.6331 16.7537 16.3264 17.1479L16.2426 17.2426C15.8521 17.6332 15.2133 17.6275 14.8267 17.2409L14.7574 17.1716C14.2327 17.5191 13.6385 17.7703 13.0002 17.8999L13 17.9975C13 18.5116 12.6173 18.9353 12.1173 18.9933L12 19C11.4477 19 11 18.5442 11 17.9975L10.9988 17.8997C10.3609 17.7701 9.76705 17.519 9.24255 17.1716L9.17332 17.2409C8.81195 17.6023 8.2463 17.6331 7.85212 17.3264L7.75736 17.2426C7.36684 16.8521 7.37252 16.2133 7.75911 15.8267L7.82843 15.7574C7.48104 15.233 7.22992 14.6391 7.10026 14.0012L7.00247 14C6.48837 14 6.06465 13.6173 6.00674 13.1173L6 13C6 12.4477 6.45576 12 7.00247 12L7.10006 11.9998C7.22966 11.3615 7.48086 10.7673 7.82843 10.2426L7.75911 10.1733C7.39773 9.81195 7.36695 9.2463 7.67365 8.85212L7.75736 8.75736C8.14788 8.36684 8.78674 8.37252 9.17332 8.75911L9.24255 8.82843C9.76705 8.48104 10.3609 8.22992 10.9988 8.10026L11 8.00247C11 7.48837 11.3827 7.06465 11.8827 7.00674L12 7Z" stroke="#67CDFF" stroke-width="2"/>
<path d="M12 15C13.1046 15 14 14.1046 14 13C14 11.8954 13.1046 11 12 11C10.8954 11 10 11.8954 10 13C10 14.1046 10.8954 15 12 15Z" stroke="#2693FF" stroke-width="2"/>
<path fill-rule="evenodd" clip-rule="evenodd" d="M10 3C11.8846 3 13.5663 3.86889 14.6662 5.22792C15.0837 5.0802 15.5325 5 16 5C18.2091 5 20 6.79086 20 9C20 9.26041 19.9751 9.51502 19.9276 9.76156C21.7608 10.7881 23 12.7493 23 15C23 18.3137 20.3137 21 17 21H7C3.68629 21 1 18.3137 1 15C1 12.7584 2.2292 10.804 4.05032 9.77391C4.01686 9.52117 4 9.26255 4 9C4 5.68629 6.68629 3 10 3Z" stroke="#67CDFF" stroke-width="2" stroke-linecap="round" stroke-linejoin="round"/>
</svg>
