<svg width="24" height="24" viewBox="0 0 24 24" fill="none" xmlns="http://www.w3.org/2000/svg">
<path d="M14.284 19H11.926C11.662 19 11.443 18.94 11.269 18.82C11.101 18.694 10.984 18.535 10.918 18.343L10.144 16.057H5.158L4.384 18.343C4.324 18.511 4.207 18.664 4.033 18.802C3.859 18.934 3.646 19 3.394 19H1.018L6.094 5.887H9.208L14.284 19ZM5.86 13.987H9.442L8.236 10.396C8.158 10.168 8.065 9.901 7.957 9.595C7.855 9.283 7.753 8.947 7.651 8.587C7.555 8.953 7.456 9.292 7.354 9.604C7.252 9.916 7.156 10.186 7.066 10.414L5.86 13.987Z" fill="#2693FF"/>
<path d="M21.7955 19C21.5315 19 21.3305 18.964 21.1925 18.892C21.0605 18.82 20.9495 18.67 20.8595 18.442L20.6615 17.929C20.4275 18.127 20.2025 18.301 19.9865 18.451C19.7705 18.601 19.5455 18.73 19.3115 18.838C19.0835 18.94 18.8375 19.015 18.5735 19.063C18.3155 19.117 18.0275 19.144 17.7095 19.144C17.2835 19.144 16.8965 19.09 16.5485 18.982C16.2005 18.868 15.9035 18.703 15.6575 18.487C15.4175 18.271 15.2315 18.004 15.0995 17.686C14.9675 17.362 14.9015 16.99 14.9015 16.57C14.9015 16.24 14.9855 15.901 15.1535 15.553C15.3215 15.205 15.6125 14.89 16.0265 14.608C16.4405 14.32 16.9985 14.08 17.7005 13.888C18.4025 13.696 19.2875 13.588 20.3555 13.564V13.168C20.3555 12.622 20.2415 12.229 20.0135 11.989C19.7915 11.743 19.4735 11.62 19.0595 11.62C18.7295 11.62 18.4595 11.656 18.2495 11.728C18.0395 11.8 17.8505 11.881 17.6825 11.971C17.5205 12.061 17.3615 12.142 17.2055 12.214C17.0495 12.286 16.8635 12.322 16.6475 12.322C16.4555 12.322 16.2905 12.277 16.1525 12.187C16.0205 12.091 15.9155 11.974 15.8375 11.836L15.3335 10.963C15.8975 10.465 16.5215 10.096 17.2055 9.856C17.8955 9.61 18.6335 9.487 19.4195 9.487C19.9835 9.487 20.4905 9.58 20.9405 9.766C21.3965 9.946 21.7805 10.201 22.0925 10.531C22.4105 10.855 22.6535 11.242 22.8215 11.692C22.9895 12.142 23.0735 12.634 23.0735 13.168V19H21.7955ZM18.5915 17.299C18.9515 17.299 19.2665 17.236 19.5365 17.11C19.8065 16.984 20.0795 16.78 20.3555 16.498V15.202C19.7975 15.226 19.3385 15.274 18.9785 15.346C18.6185 15.418 18.3335 15.508 18.1235 15.616C17.9135 15.724 17.7665 15.847 17.6825 15.985C17.6045 16.123 17.5655 16.273 17.5655 16.435C17.5655 16.753 17.6525 16.978 17.8265 17.11C18.0005 17.236 18.2555 17.299 18.5915 17.299Z" fill="#67CDFF"/>
</svg>
