<svg width="24" height="25" viewBox="0 0 24 25" fill="none" xmlns="http://www.w3.org/2000/svg">
<path fill-rule="evenodd" clip-rule="evenodd" d="M11.3802 1.21525C11.8137 0.87296 12.4426 0.946855 12.7848 1.3803L13.0805 1.76047C15.6935 5.17181 17 8.31249 17 11.1825C17 12.0032 16.9362 12.7418 16.817 13.4029L19 16.0737V19.0084L14.9459 17.026C14.1197 17.7143 13.1015 18.0301 12 18.0301C10.8985 18.0301 9.88027 17.7143 9.05406 17.026L5 19.0084V16.0737L7.18322 13.4038C7.06383 12.7426 7 12.0036 7 11.1825C7 8.20619 8.40507 4.93879 11.2152 1.3803C11.2636 1.31903 11.319 1.26364 11.3802 1.21525Z" stroke="#2693FF" stroke-width="2" stroke-linecap="round" stroke-linejoin="round"/>
<path d="M12 11.0083C13.1046 11.0083 14 10.1129 14 9.0083C14 7.90373 13.1046 7.0083 12 7.0083C10.8954 7.0083 10 7.90373 10 9.0083C10 10.1129 10.8954 11.0083 12 11.0083Z" fill="#67CDFF"/>
<path fill-rule="evenodd" clip-rule="evenodd" d="M12 24.0083C13.3333 22.5954 14 21.4288 14 20.5083C14 19.1276 13.1046 19.0083 12 19.0083C10.8954 19.0083 10 19.1276 10 20.5083C10 21.4288 10.6667 22.5954 12 24.0083Z" fill="#67CDFF"/>
</svg>
