<svg width="24" height="24" viewBox="0 0 24 24" fill="none" xmlns="http://www.w3.org/2000/svg">
<rect x="1" y="3" width="22" height="14" rx="1" stroke="#67CDFF" stroke-width="2"/>
<rect x="11" y="18" width="2" height="6" fill="#2693FF"/>
<path fill-rule="evenodd" clip-rule="evenodd" d="M13 18H15L18 24H16L13 18Z" fill="#2693FF"/>
<path fill-rule="evenodd" clip-rule="evenodd" d="M9 18H11L8 24H6L9 18Z" fill="#2693FF"/>
<path d="M11 1C11 0.447715 11.4477 0 12 0C12.5523 0 13 0.447715 13 1V2H11V1Z" fill="#2693FF"/>
<rect x="4" y="6" width="6" height="8" rx="1" fill="#2693FF"/>
<rect x="12" y="6" width="8" height="2" rx="1" fill="#2693FF"/>
<rect x="12" y="9" width="8" height="2" rx="1" fill="#2693FF"/>
<rect x="12" y="12" width="6" height="2" rx="1" fill="#2693FF"/>
</svg>
