<svg width="24" height="24" viewBox="0 0 24 24" fill="none" xmlns="http://www.w3.org/2000/svg">
<path d="M3 7.27933C3 5.84929 4.00938 4.61804 5.41165 4.33759L21 1.21992L21 2.7209C21 4.15094 19.9906 5.38219 18.5883 5.66264L3 8.78031L3 7.27933Z" stroke="#67CDFF" stroke-width="2"/>
<path d="M3 14.2793C3 12.8493 4.00938 11.618 5.41165 11.3376L21 8.21992L21 9.7209C21 11.1509 19.9906 12.3822 18.5883 12.6626L3 15.7803L3 14.2793Z" stroke="#67CDFF" stroke-width="2"/>
<path d="M3 21.2793C3 19.8493 4.00938 18.618 5.41165 18.3376L21 15.2199L21 16.7209C21 18.1509 19.9906 19.3822 18.5883 19.6626L3 22.7803L3 21.2793Z" stroke="#67CDFF" stroke-width="2"/>
</svg>
