<svg width="24" height="24" viewBox="0 0 24 24" fill="none" xmlns="http://www.w3.org/2000/svg">
<path fill-rule="evenodd" clip-rule="evenodd" d="M23 12C23 5.92487 18.0751 1 12 1C5.92487 1 1 5.92487 1 12C1 18.0751 5.92487 23 12 23H12.4645C13.7692 23 14.4226 21.4226 13.5 20.5V20.5C12.5774 19.5774 13.2308 18 14.5355 18H18C20.7614 18 23 15.7614 23 13V12Z" stroke="#67CDFF" stroke-width="2" stroke-linejoin="round"/>
<path d="M6 13C7.10457 13 8 12.1046 8 11C8 9.89543 7.10457 9 6 9C4.89543 9 4 9.89543 4 11C4 12.1046 4.89543 13 6 13Z" fill="#2693FF"/>
<path d="M9 8C10.1046 8 11 7.10457 11 6C11 4.89543 10.1046 4 9 4C7.89543 4 7 4.89543 7 6C7 7.10457 7.89543 8 9 8Z" fill="#2693FF"/>
<path d="M15 8C16.1046 8 17 7.10457 17 6C17 4.89543 16.1046 4 15 4C13.8954 4 13 4.89543 13 6C13 7.10457 13.8954 8 15 8Z" fill="#2693FF"/>
<path d="M18 13C19.1046 13 20 12.1046 20 11C20 9.89543 19.1046 9 18 9C16.8954 9 16 9.89543 16 11C16 12.1046 16.8954 13 18 13Z" fill="#2693FF"/>
</svg>
