<svg width="24" height="24" viewBox="0 0 24 24" fill="none" xmlns="http://www.w3.org/2000/svg">
<path d="M22 12C22 17.5228 17.5228 22 12 22C6.47715 22 2 17.5228 2 12C2 6.47715 6.47715 2 12 2C17.5228 2 22 6.47715 22 12Z" stroke="#67CDFF" stroke-width="2"/>
<path d="M12 17C14.7614 17 17 14.7614 17 12C17 9.23858 14.7614 7 12 7C9.23858 7 7 9.23858 7 12C7 14.7614 9.23858 17 12 17Z" stroke="#67CDFF" stroke-width="2"/>
<rect y="10" width="9" height="4" rx="1" fill="#2693FF"/>
<rect x="10" width="4" height="9" rx="1" fill="#2693FF"/>
<rect x="15" y="10" width="9" height="4" rx="1" fill="#2693FF"/>
<rect x="10" y="15" width="4" height="9" rx="1" fill="#2693FF"/>
</svg>
