<svg width="24" height="24" viewBox="0 0 24 24" fill="none" xmlns="http://www.w3.org/2000/svg">
<path d="M10.1266 6.29827L10.4386 7.24836L10.8946 7.09862L11.063 6.64918L10.1266 6.29827ZM13.8734 6.29827L12.937 6.64918L13.1054 7.09862L13.5614 7.24836L13.8734 6.29827ZM14.7066 6.64373L14.2549 7.53589L14.6835 7.75291L15.1208 7.55391L14.7066 6.64373ZM17.3563 9.29337L16.4461 8.87916L16.2471 9.31646L16.4641 9.74509L17.3563 9.29337ZM17.7017 10.1266L16.7516 10.4386L16.9014 10.8946L17.3508 11.063L17.7017 10.1266ZM17.7017 13.8734L17.3508 12.937L16.9014 13.1054L16.7516 13.5614L17.7017 13.8734ZM17.3563 14.7066L16.4641 14.2549L16.2471 14.6835L16.4461 15.1208L17.3563 14.7066ZM16.9497 16.9497L16.2426 16.2426V16.2426L16.9497 16.9497ZM14.7066 17.3563L15.1208 16.4461L14.6835 16.2471L14.2549 16.4641L14.7066 17.3563ZM13.8734 17.7017L13.5614 16.7516L13.1054 16.9014L12.937 17.3508L13.8734 17.7017ZM10.1266 17.7017L11.063 17.3508L10.8946 16.9014L10.4386 16.7516L10.1266 17.7017ZM9.29337 17.3563L9.74509 16.4641L9.31646 16.2471L8.87916 16.4461L9.29337 17.3563ZM7.05025 16.9497L7.75736 16.2426H7.75736L7.05025 16.9497ZM6.64373 14.7066L7.55391 15.1208L7.75291 14.6835L7.53589 14.2549L6.64373 14.7066ZM6.29827 13.8734L7.24836 13.5614L7.09862 13.1054L6.64918 12.937L6.29827 13.8734ZM6.29827 10.1266L6.64918 11.063L7.09862 10.8946L7.24835 10.4386L6.29827 10.1266ZM6.64373 9.29337L7.53589 9.74509L7.75291 9.31646L7.55391 8.87916L6.64373 9.29337ZM7.05025 7.05025L6.34315 6.34315L6.34315 6.34315L7.05025 7.05025ZM9.29337 6.64373L8.87916 7.55391L9.31646 7.75291L9.74509 7.53589L9.29337 6.64373ZM12 4C10.7119 4 9.61589 4.81129 9.19016 5.94736L11.063 6.64918C11.2057 6.2684 11.5727 6 12 6V4ZM14.8098 5.94736C14.3841 4.81129 13.2881 4 12 4V6C12.4273 6 12.7943 6.2684 12.937 6.64918L14.8098 5.94736ZM13.5614 7.24836C13.801 7.32703 14.0327 7.42337 14.2549 7.53589L15.1583 5.75157C14.8468 5.59383 14.5218 5.45864 14.1854 5.34818L13.5614 7.24836ZM17.6569 6.34315C16.7459 5.4322 15.3969 5.23092 14.2924 5.73354L15.1208 7.55391C15.491 7.38545 15.9405 7.45519 16.2426 7.75736L17.6569 6.34315ZM18.2665 9.70757C18.7691 8.6031 18.5678 7.2541 17.6569 6.34315L16.2426 7.75736C16.5448 8.05953 16.6146 8.50898 16.4461 8.87916L18.2665 9.70757ZM16.4641 9.74509C16.5766 9.96732 16.673 10.199 16.7516 10.4386L18.6518 9.81459C18.5414 9.47822 18.4062 9.15319 18.2484 8.84165L16.4641 9.74509ZM20 12C20 10.7119 19.1887 9.61589 18.0526 9.19016L17.3508 11.063C17.7316 11.2057 18 11.5727 18 12H20ZM18.0526 14.8098C19.1887 14.3841 20 13.2881 20 12H18C18 12.4273 17.7316 12.7943 17.3508 12.937L18.0526 14.8098ZM16.7516 13.5614C16.673 13.801 16.5766 14.0327 16.4641 14.2549L18.2484 15.1583C18.4062 14.8468 18.5414 14.5218 18.6518 14.1854L16.7516 13.5614ZM17.6569 17.6569C18.5678 16.7459 18.7691 15.3969 18.2665 14.2924L16.4461 15.1208C16.6146 15.491 16.5448 15.9405 16.2426 16.2426L17.6569 17.6569ZM14.2924 18.2665C15.3969 18.7691 16.7459 18.5678 17.6569 17.6569L16.2426 16.2426C15.9405 16.5448 15.491 16.6146 15.1208 16.4461L14.2924 18.2665ZM14.2549 16.4641C14.0327 16.5766 13.801 16.673 13.5614 16.7516L14.1854 18.6518C14.5218 18.5414 14.8468 18.4062 15.1583 18.2484L14.2549 16.4641ZM12 20C13.2881 20 14.3841 19.1887 14.8098 18.0526L12.937 17.3508C12.7943 17.7316 12.4273 18 12 18V20ZM9.19016 18.0526C9.61589 19.1887 10.7119 20 12 20V18C11.5727 18 11.2057 17.7316 11.063 17.3508L9.19016 18.0526ZM10.4386 16.7516C10.199 16.673 9.96732 16.5766 9.74509 16.4641L8.84165 18.2484C9.15319 18.4062 9.47822 18.5414 9.81458 18.6518L10.4386 16.7516ZM6.34315 17.6569C7.2541 18.5678 8.6031 18.7691 9.70757 18.2665L8.87916 16.4461C8.50898 16.6146 8.05953 16.5448 7.75736 16.2426L6.34315 17.6569ZM5.73354 14.2924C5.23092 15.3969 5.4322 16.7459 6.34315 17.6569L7.75736 16.2426C7.45519 15.9405 7.38545 15.491 7.55391 15.1208L5.73354 14.2924ZM7.53589 14.2549C7.42337 14.0327 7.32703 13.801 7.24836 13.5614L5.34818 14.1854C5.45864 14.5218 5.59383 14.8468 5.75157 15.1583L7.53589 14.2549ZM4 12C4 13.2881 4.81129 14.3841 5.94736 14.8098L6.64918 12.937C6.2684 12.7943 6 12.4273 6 12H4ZM5.94736 9.19016C4.81129 9.61589 4 10.7119 4 12H6C6 11.5727 6.2684 11.2057 6.64918 11.063L5.94736 9.19016ZM7.24835 10.4386C7.32702 10.199 7.42337 9.96732 7.53589 9.74509L5.75157 8.84165C5.59383 9.15319 5.45864 9.47822 5.34818 9.81458L7.24835 10.4386ZM6.34315 6.34315C5.4322 7.2541 5.23092 8.6031 5.73354 9.70757L7.55391 8.87916C7.38545 8.50898 7.45519 8.05953 7.75736 7.75736L6.34315 6.34315ZM9.70757 5.73354C8.6031 5.23092 7.2541 5.4322 6.34315 6.34315L7.75736 7.75736C8.05953 7.45519 8.50898 7.38545 8.87916 7.55391L9.70757 5.73354ZM9.74509 7.53589C9.96732 7.42337 10.199 7.32702 10.4386 7.24836L9.81458 5.34818C9.47822 5.45864 9.15318 5.59383 8.84165 5.75157L9.74509 7.53589Z" fill="#2693FF"/>
<path fill-rule="evenodd" clip-rule="evenodd" d="M12 14C13.1046 14 14 13.1046 14 12C14 10.8954 13.1046 10 12 10C10.8954 10 10 10.8954 10 12C10 13.1046 10.8954 14 12 14Z" stroke="#2693FF" stroke-width="2"/>
<rect x="3" y="3" width="18" height="18" rx="2" stroke="#67CDFF" stroke-width="2"/>
<rect x="5" width="2" height="3" rx="1" fill="#67CDFF"/>
<rect x="9" width="2" height="3" rx="1" fill="#67CDFF"/>
<rect x="13" width="2" height="3" rx="1" fill="#67CDFF"/>
<rect x="17" width="2" height="3" rx="1" fill="#67CDFF"/>
<rect x="5" y="21" width="2" height="3" rx="1" fill="#67CDFF"/>
<rect x="9" y="21" width="2" height="3" rx="1" fill="#67CDFF"/>
<rect x="13" y="21" width="2" height="3" rx="1" fill="#67CDFF"/>
<rect x="17" y="21" width="2" height="3" rx="1" fill="#67CDFF"/>
<rect x="24" y="5" width="2" height="3" rx="1" transform="rotate(90 24 5)" fill="#67CDFF"/>
<rect x="24" y="9" width="2" height="3" rx="1" transform="rotate(90 24 9)" fill="#67CDFF"/>
<rect x="24" y="13" width="2" height="3" rx="1" transform="rotate(90 24 13)" fill="#67CDFF"/>
<rect x="24" y="17" width="2" height="3" rx="1" transform="rotate(90 24 17)" fill="#67CDFF"/>
<rect x="3" y="5" width="2" height="3" rx="1" transform="rotate(90 3 5)" fill="#67CDFF"/>
<rect x="3" y="9" width="2" height="3" rx="1" transform="rotate(90 3 9)" fill="#67CDFF"/>
<rect x="3" y="13" width="2" height="3" rx="1" transform="rotate(90 3 13)" fill="#67CDFF"/>
<rect x="3" y="17" width="2" height="3" rx="1" transform="rotate(90 3 17)" fill="#67CDFF"/>
</svg>
