<svg width="24" height="24" viewBox="0 0 24 24" fill="none" xmlns="http://www.w3.org/2000/svg">
<rect x="1" y="1" width="22" height="22" rx="3" stroke="#67CDFF" stroke-width="2" stroke-dasharray="2 2"/>
<path d="M18.2607 9.46582H17.4258C17.3496 8.72754 17.1855 8.18262 16.9336 7.83105C16.6875 7.47949 16.4209 7.2627 16.1338 7.18066C15.8467 7.09863 15.5156 7.05762 15.1406 7.05762H13.6289V15.7852C13.6289 16.1309 13.6641 16.4004 13.7344 16.5938C13.8047 16.7812 13.9688 16.9277 14.2266 17.0332C14.4844 17.1387 14.8623 17.1914 15.3604 17.1914V18H9.38379V17.1914C10.1162 17.1914 10.5879 17.0859 10.7988 16.875C11.0098 16.6641 11.1152 16.3008 11.1152 15.7852V7.05762H9.84961C9.35156 7.05762 8.93848 7.09863 8.61035 7.18066C8.28223 7.25684 7.99219 7.47363 7.74023 7.83105C7.49414 8.18262 7.35352 8.72754 7.31836 9.46582H6.4834V6.08203H18.2607V9.46582Z" fill="#2693FF"/>
</svg>
