<svg width="24" height="31" viewBox="0 0 24 31" fill="none" xmlns="http://www.w3.org/2000/svg">
<path fill-rule="evenodd" clip-rule="evenodd" d="M9.71782 9.86702C9.71782 8.76092 10.6122 7.86426 11.7178 7.86426H12.8527C13.9572 7.86426 14.8527 8.7578 14.8527 9.86702L14.8518 17.4053L20.0887 18.4681C21.1672 18.6869 21.9574 19.7644 21.8555 20.8563L21.2004 27.8722C21.0977 28.9724 20.1178 29.8643 19.0157 29.8643H9.6626C8.55874 29.8643 7.32072 29.0289 6.90086 28.0068L3.93511 20.7871C3.72575 20.2774 3.99381 19.7364 4.52184 19.5821L5.80823 19.2063C7.40026 18.7413 9.02712 19.674 9.4372 21.2712L9.71782 22.3643V9.86702Z" stroke="#67CDFF" stroke-width="2" stroke-linecap="round" stroke-linejoin="round"/>
<path d="M6.18179 8.18223C4.42443 9.93958 4.42443 12.7888 6.18179 14.5462M18.5458 14.5462C20.3031 12.7888 20.3031 9.93958 18.5458 8.18223" stroke="#2693FF" stroke-width="2" stroke-linecap="round"/>
</svg>
