<svg width="24" height="24" viewBox="0 0 24 24" fill="none" xmlns="http://www.w3.org/2000/svg">
<rect x="1" y="5" width="22" height="15" rx="1" stroke="#2693FF" stroke-width="2"/>
<rect x="2.5" y="5.5" width="19" height="1" fill="#D8D8D8" stroke="#2693FF"/>
<rect x="2" y="5" width="1" height="1" fill="#67CDFF"/>
<rect x="4" y="5" width="1" height="1" fill="#67CDFF"/>
<rect x="6" y="5" width="1" height="1" fill="#67CDFF"/>
<path d="M12 17.5C14.4853 17.5 16.5 15.4853 16.5 13C16.5 10.5147 14.4853 8.5 12 8.5C9.51472 8.5 7.5 10.5147 7.5 13C7.5 15.4853 9.51472 17.5 12 17.5Z" stroke="#67CDFF"/>
<path fill-rule="evenodd" clip-rule="evenodd" d="M12 17C13.1046 17 14 15.2091 14 13C14 10.7909 13.1046 9 12 9C10.8954 9 10 10.7909 10 13C10 15.2091 10.8954 17 12 17Z" stroke="#67CDFF"/>
<path d="M8.5 14.5H15.5" stroke="#67CDFF" stroke-linecap="square"/>
<path d="M8.5 11.5H15.5" stroke="#67CDFF" stroke-linecap="square"/>
</svg>
