<svg width="24" height="24" viewBox="0 0 24 24" fill="none" xmlns="http://www.w3.org/2000/svg">
<path fill-rule="evenodd" clip-rule="evenodd" d="M16.4359 4.00061C17.3595 3.07698 18.7356 2.88151 19.8507 3.41421L17.8501 5.41483L19.2643 6.82904L21.265 4.82843C21.7977 5.94355 21.6022 7.31962 20.6786 8.24325C19.7549 9.16689 18.3789 9.36236 17.2637 8.82965L7.82992 18.2635C8.36262 19.3786 8.16716 20.7546 7.24352 21.6783C6.31989 22.6019 4.94382 22.7974 3.8287 22.2647L5.82931 20.2641L4.4151 18.8499L2.41448 20.8505C1.88178 19.7353 2.07725 18.3593 3.00088 17.4356C3.92452 16.512 5.30058 16.3165 6.41571 16.8492L15.8495 7.41544C15.3168 6.30031 15.5123 4.92425 16.4359 4.00061Z" fill="#67CDFF"/>
<rect x="6.24316" y="8.65674" width="2" height="14" transform="rotate(-45 6.24316 8.65674)" fill="#2693FF"/>
<path fill-rule="evenodd" clip-rule="evenodd" d="M2.00049 5.82837L4.82892 2.99994L7.65734 7.24258L6.24313 8.6568L2.00049 5.82837Z" fill="#2693FF"/>
<rect x="14.7285" y="18.5564" width="4" height="7" rx="1" transform="rotate(-45 14.7285 18.5564)" fill="#2693FF"/>
</svg>
