<svg width="159" height="50" viewBox="0 0 159 50" fill="none" xmlns="http://www.w3.org/2000/svg">
<rect width="159" height="50" rx="4" fill="white"/>
<path d="M26.9097 29.8774C27.395 29.8774 27.8164 29.8348 28.1737 29.7494C28.5364 29.6588 28.8804 29.5361 29.2057 29.3814V27.2774H27.7577C27.619 27.2774 27.5097 27.2401 27.4297 27.1654C27.3497 27.0854 27.3097 26.9894 27.3097 26.8774V25.6614H31.1577V30.3414C30.8644 30.5548 30.5577 30.7414 30.2377 30.9014C29.923 31.0561 29.5844 31.1841 29.2217 31.2854C28.8644 31.3868 28.4804 31.4614 28.0697 31.5094C27.659 31.5628 27.2164 31.5894 26.7417 31.5894C25.899 31.5894 25.123 31.4428 24.4137 31.1494C23.7044 30.8561 23.091 30.4481 22.5737 29.9254C22.0564 29.4028 21.651 28.7788 21.3577 28.0534C21.0697 27.3281 20.9257 26.5361 20.9257 25.6774C20.9257 24.8081 21.067 24.0108 21.3497 23.2854C21.6324 22.5601 22.0324 21.9361 22.5497 21.4134C23.0724 20.8908 23.7044 20.4854 24.4457 20.1974C25.187 19.9094 26.019 19.7654 26.9417 19.7654C27.8857 19.7654 28.7017 19.9068 29.3897 20.1894C30.083 20.4668 30.6697 20.8294 31.1497 21.2774L30.5257 22.2534C30.403 22.4508 30.2404 22.5494 30.0377 22.5494C29.9097 22.5494 29.779 22.5068 29.6457 22.4214C29.475 22.3201 29.299 22.2188 29.1177 22.1174C28.9417 22.0161 28.7444 21.9281 28.5257 21.8534C28.3124 21.7788 28.0697 21.7174 27.7977 21.6694C27.531 21.6214 27.2217 21.5974 26.8697 21.5974C26.299 21.5974 25.7817 21.6934 25.3177 21.8854C24.859 22.0774 24.467 22.3521 24.1417 22.7094C23.8164 23.0668 23.5657 23.4961 23.3897 23.9974C23.2137 24.4988 23.1257 25.0588 23.1257 25.6774C23.1257 26.3441 23.219 26.9388 23.4057 27.4614C23.5924 27.9788 23.8537 28.4161 24.1897 28.7734C24.5257 29.1308 24.9257 29.4054 25.3897 29.5974C25.8537 29.7841 26.3604 29.8774 26.9097 29.8774ZM36.4402 23.1254C36.9575 23.1254 37.4322 23.2081 37.8642 23.3734C38.3015 23.5388 38.6775 23.7814 38.9922 24.1014C39.3069 24.4161 39.5522 24.8054 39.7282 25.2694C39.9042 25.7281 39.9922 26.2534 39.9922 26.8454C39.9922 26.9948 39.9842 27.1201 39.9682 27.2214C39.9575 27.3174 39.9335 27.3948 39.8962 27.4534C39.8642 27.5068 39.8189 27.5468 39.7602 27.5734C39.7015 27.5948 39.6269 27.6054 39.5362 27.6054H34.4642C34.5229 28.4481 34.7495 29.0668 35.1442 29.4614C35.5389 29.8561 36.0615 30.0534 36.7122 30.0534C37.0322 30.0534 37.3069 30.0161 37.5362 29.9414C37.7709 29.8668 37.9735 29.7841 38.1442 29.6934C38.3202 29.6028 38.4722 29.5201 38.6002 29.4454C38.7335 29.3708 38.8615 29.3334 38.9842 29.3334C39.0642 29.3334 39.1335 29.3494 39.1922 29.3814C39.2509 29.4134 39.3015 29.4588 39.3442 29.5174L39.9202 30.2374C39.7015 30.4934 39.4562 30.7094 39.1842 30.8854C38.9122 31.0561 38.6269 31.1948 38.3282 31.3014C38.0349 31.4028 37.7335 31.4748 37.4242 31.5174C37.1202 31.5601 36.8242 31.5814 36.5362 31.5814C35.9655 31.5814 35.4349 31.4881 34.9442 31.3014C34.4535 31.1094 34.0269 30.8294 33.6642 30.4614C33.3015 30.0881 33.0162 29.6294 32.8082 29.0854C32.6002 28.5361 32.4962 27.9014 32.4962 27.1814C32.4962 26.6214 32.5869 26.0961 32.7682 25.6054C32.9495 25.1094 33.2082 24.6801 33.5442 24.3174C33.8855 23.9494 34.2989 23.6588 34.7842 23.4454C35.2749 23.2321 35.8269 23.1254 36.4402 23.1254ZM36.4802 24.5414C35.9042 24.5414 35.4535 24.7041 35.1282 25.0294C34.8029 25.3548 34.5949 25.8161 34.5042 26.4134H38.2162C38.2162 26.1574 38.1815 25.9174 38.1122 25.6934C38.0429 25.4641 37.9362 25.2641 37.7922 25.0934C37.6482 24.9228 37.4669 24.7894 37.2482 24.6934C37.0295 24.5921 36.7735 24.5414 36.4802 24.5414ZM44.2911 31.5894C43.5817 31.5894 43.0351 31.3894 42.6511 30.9894C42.2671 30.5841 42.0751 30.0268 42.0751 29.3174V24.7334H41.2431C41.1364 24.7334 41.0431 24.6988 40.9631 24.6294C40.8884 24.5601 40.8511 24.4561 40.8511 24.3174V23.5334L42.1711 23.3174L42.5871 21.0774C42.6084 20.9708 42.6564 20.8881 42.7311 20.8294C42.8111 20.7708 42.9097 20.7414 43.0271 20.7414H44.0511V23.3254H46.2111V24.7334H44.0511V29.1814C44.0511 29.4374 44.1151 29.6374 44.2431 29.7814C44.3711 29.9254 44.5417 29.9974 44.7551 29.9974C44.8777 29.9974 44.9791 29.9841 45.0591 29.9574C45.1444 29.9254 45.2164 29.8934 45.2751 29.8614C45.3391 29.8294 45.3951 29.8001 45.4431 29.7734C45.4911 29.7414 45.5391 29.7254 45.5871 29.7254C45.6457 29.7254 45.6937 29.7414 45.7311 29.7734C45.7684 29.8001 45.8084 29.8428 45.8511 29.9014L46.4431 30.8614C46.1551 31.1014 45.8244 31.2828 45.4511 31.4054C45.0777 31.5281 44.6911 31.5894 44.2911 31.5894ZM57.1883 21.9974C57.1296 22.1148 57.0603 22.1974 56.9803 22.2454C56.9056 22.2934 56.815 22.3174 56.7083 22.3174C56.6016 22.3174 56.4816 22.2774 56.3483 22.1974C56.215 22.1121 56.0576 22.0188 55.8763 21.9174C55.695 21.8161 55.4816 21.7254 55.2363 21.6454C54.9963 21.5601 54.711 21.5174 54.3803 21.5174C54.0816 21.5174 53.8203 21.5548 53.5963 21.6294C53.3776 21.6988 53.191 21.7974 53.0363 21.9254C52.887 22.0534 52.775 22.2081 52.7003 22.3894C52.6256 22.5654 52.5883 22.7601 52.5883 22.9734C52.5883 23.2454 52.663 23.4721 52.8123 23.6534C52.967 23.8348 53.1696 23.9894 53.4203 24.1174C53.671 24.2454 53.9563 24.3601 54.2763 24.4614C54.5963 24.5628 54.9216 24.6721 55.2523 24.7894C55.5883 24.9014 55.9163 25.0348 56.2363 25.1894C56.5563 25.3388 56.8416 25.5308 57.0923 25.7654C57.343 25.9948 57.543 26.2774 57.6923 26.6134C57.847 26.9494 57.9243 27.3574 57.9243 27.8374C57.9243 28.3601 57.8336 28.8508 57.6523 29.3094C57.4763 29.7628 57.215 30.1601 56.8683 30.5014C56.527 30.8374 56.1083 31.1041 55.6123 31.3014C55.1163 31.4934 54.5483 31.5894 53.9083 31.5894C53.5403 31.5894 53.1776 31.5521 52.8203 31.4774C52.463 31.4081 52.119 31.3068 51.7883 31.1734C51.463 31.0401 51.1563 30.8801 50.8683 30.6934C50.5856 30.5068 50.3323 30.2988 50.1083 30.0694L50.7323 29.0374C50.791 28.9628 50.8603 28.9014 50.9403 28.8534C51.0256 28.8001 51.119 28.7734 51.2203 28.7734C51.3536 28.7734 51.4976 28.8294 51.6523 28.9414C51.807 29.0481 51.9883 29.1681 52.1963 29.3014C52.4096 29.4348 52.6576 29.5574 52.9403 29.6694C53.2283 29.7761 53.5723 29.8294 53.9723 29.8294C54.5856 29.8294 55.0603 29.6854 55.3963 29.3974C55.7323 29.1041 55.9003 28.6854 55.9003 28.1414C55.9003 27.8374 55.823 27.5894 55.6683 27.3974C55.519 27.2054 55.319 27.0454 55.0683 26.9174C54.8176 26.7841 54.5323 26.6721 54.2123 26.5814C53.8923 26.4908 53.567 26.3921 53.2363 26.2854C52.9056 26.1788 52.5803 26.0508 52.2603 25.9014C51.9403 25.7521 51.655 25.5574 51.4043 25.3174C51.1536 25.0774 50.951 24.7788 50.7963 24.4214C50.647 24.0588 50.5723 23.6134 50.5723 23.0854C50.5723 22.6641 50.655 22.2534 50.8203 21.8534C50.991 21.4534 51.2363 21.0988 51.5563 20.7894C51.8816 20.4801 52.279 20.2321 52.7483 20.0454C53.2176 19.8588 53.7536 19.7654 54.3563 19.7654C55.039 19.7654 55.6683 19.8721 56.2443 20.0854C56.8203 20.2988 57.311 20.5974 57.7163 20.9814L57.1883 21.9974ZM62.1504 31.5894C61.4411 31.5894 60.8944 31.3894 60.5104 30.9894C60.1264 30.5841 59.9344 30.0268 59.9344 29.3174V24.7334H59.1024C58.9958 24.7334 58.9024 24.6988 58.8224 24.6294C58.7478 24.5601 58.7104 24.4561 58.7104 24.3174V23.5334L60.0304 23.3174L60.4464 21.0774C60.4678 20.9708 60.5158 20.8881 60.5904 20.8294C60.6704 20.7708 60.7691 20.7414 60.8864 20.7414H61.9104V23.3254H64.0704V24.7334H61.9104V29.1814C61.9104 29.4374 61.9744 29.6374 62.1024 29.7814C62.2304 29.9254 62.4011 29.9974 62.6144 29.9974C62.7371 29.9974 62.8384 29.9841 62.9184 29.9574C63.0038 29.9254 63.0758 29.8934 63.1344 29.8614C63.1984 29.8294 63.2544 29.8001 63.3024 29.7734C63.3504 29.7414 63.3984 29.7254 63.4464 29.7254C63.5051 29.7254 63.5531 29.7414 63.5904 29.7734C63.6278 29.8001 63.6678 29.8428 63.7104 29.9014L64.3024 30.8614C64.0144 31.1014 63.6838 31.2828 63.3104 31.4054C62.9371 31.5281 62.5504 31.5894 62.1504 31.5894ZM72.0739 31.4614H71.1859C70.9993 31.4614 70.8526 31.4348 70.7459 31.3814C70.6393 31.3228 70.5593 31.2081 70.5059 31.0374L70.3299 30.4534C70.1219 30.6401 69.9166 30.8054 69.7139 30.9494C69.5166 31.0881 69.3113 31.2054 69.0979 31.3014C68.8846 31.3974 68.6579 31.4694 68.4179 31.5174C68.1779 31.5654 67.9113 31.5894 67.6179 31.5894C67.2713 31.5894 66.9513 31.5441 66.6579 31.4534C66.3646 31.3574 66.1113 31.2161 65.8979 31.0294C65.6899 30.8428 65.5273 30.6108 65.4099 30.3334C65.2926 30.0561 65.2339 29.7334 65.2339 29.3654C65.2339 29.0561 65.3139 28.7521 65.4739 28.4534C65.6393 28.1494 65.9113 27.8774 66.2899 27.6374C66.6686 27.3921 67.1726 27.1894 67.8019 27.0294C68.4313 26.8694 69.2126 26.7788 70.1459 26.7574V26.2774C70.1459 25.7281 70.0286 25.3228 69.7939 25.0614C69.5646 24.7948 69.2286 24.6614 68.7859 24.6614C68.4659 24.6614 68.1993 24.6988 67.9859 24.7734C67.7726 24.8481 67.5859 24.9334 67.4259 25.0294C67.2713 25.1201 67.1273 25.2028 66.9939 25.2774C66.8606 25.3521 66.7139 25.3894 66.5539 25.3894C66.4206 25.3894 66.3059 25.3548 66.2099 25.2854C66.1139 25.2161 66.0366 25.1308 65.9779 25.0294L65.6179 24.3974C66.5619 23.5334 67.7006 23.1014 69.0339 23.1014C69.5139 23.1014 69.9406 23.1814 70.3139 23.3414C70.6926 23.4961 71.0126 23.7148 71.2739 23.9974C71.5353 24.2748 71.7326 24.6081 71.8659 24.9974C72.0046 25.3868 72.0739 25.8134 72.0739 26.2774V31.4614ZM68.2339 30.2294C68.4366 30.2294 68.6233 30.2108 68.7939 30.1734C68.9646 30.1361 69.1246 30.0801 69.2739 30.0054C69.4286 29.9308 69.5753 29.8401 69.7139 29.7334C69.8579 29.6214 70.0019 29.4908 70.1459 29.3414V27.9574C69.5699 27.9841 69.0873 28.0348 68.6979 28.1094C68.3139 28.1788 68.0046 28.2694 67.7699 28.3814C67.5353 28.4934 67.3673 28.6241 67.2659 28.7734C67.1699 28.9228 67.1219 29.0854 67.1219 29.2614C67.1219 29.6081 67.2233 29.8561 67.4259 30.0054C67.6339 30.1548 67.9033 30.2294 68.2339 30.2294ZM74.0169 31.4614V23.2534H75.1769C75.3796 23.2534 75.5209 23.2908 75.6009 23.3654C75.6809 23.4401 75.7343 23.5681 75.7609 23.7494L75.8809 24.7414C76.1743 24.2348 76.5183 23.8348 76.9129 23.5414C77.3076 23.2481 77.7503 23.1014 78.2409 23.1014C78.6463 23.1014 78.9823 23.1948 79.2489 23.3814L78.9929 24.8614C78.9769 24.9574 78.9423 25.0268 78.8889 25.0694C78.8356 25.1068 78.7636 25.1254 78.6729 25.1254C78.5929 25.1254 78.4836 25.1068 78.3449 25.0694C78.2063 25.0321 78.0223 25.0134 77.7929 25.0134C77.3823 25.0134 77.0303 25.1281 76.7369 25.3574C76.4436 25.5814 76.1956 25.9121 75.9929 26.3494V31.4614H74.0169ZM83.2442 31.5894C82.5349 31.5894 81.9882 31.3894 81.6042 30.9894C81.2202 30.5841 81.0282 30.0268 81.0282 29.3174V24.7334H80.1962C80.0895 24.7334 79.9962 24.6988 79.9162 24.6294C79.8415 24.5601 79.8042 24.4561 79.8042 24.3174V23.5334L81.1242 23.3174L81.5402 21.0774C81.5615 20.9708 81.6095 20.8881 81.6842 20.8294C81.7642 20.7708 81.8629 20.7414 81.9802 20.7414H83.0042V23.3254H85.1642V24.7334H83.0042V29.1814C83.0042 29.4374 83.0682 29.6374 83.1962 29.7814C83.3242 29.9254 83.4949 29.9974 83.7082 29.9974C83.8309 29.9974 83.9322 29.9841 84.0122 29.9574C84.0975 29.9254 84.1695 29.8934 84.2282 29.8614C84.2922 29.8294 84.3482 29.8001 84.3962 29.7734C84.4442 29.7414 84.4922 29.7254 84.5402 29.7254C84.5989 29.7254 84.6469 29.7414 84.6842 29.7734C84.7215 29.8001 84.7615 29.8428 84.8042 29.9014L85.3962 30.8614C85.1082 31.1014 84.7775 31.2828 84.4042 31.4054C84.0309 31.5281 83.6442 31.5894 83.2442 31.5894ZM90.1277 23.1254C90.645 23.1254 91.1197 23.2081 91.5517 23.3734C91.989 23.5388 92.365 23.7814 92.6797 24.1014C92.9944 24.4161 93.2397 24.8054 93.4157 25.2694C93.5917 25.7281 93.6797 26.2534 93.6797 26.8454C93.6797 26.9948 93.6717 27.1201 93.6557 27.2214C93.645 27.3174 93.621 27.3948 93.5837 27.4534C93.5517 27.5068 93.5064 27.5468 93.4477 27.5734C93.389 27.5948 93.3144 27.6054 93.2237 27.6054H88.1517C88.2104 28.4481 88.437 29.0668 88.8317 29.4614C89.2264 29.8561 89.749 30.0534 90.3997 30.0534C90.7197 30.0534 90.9944 30.0161 91.2237 29.9414C91.4584 29.8668 91.661 29.7841 91.8317 29.6934C92.0077 29.6028 92.1597 29.5201 92.2877 29.4454C92.421 29.3708 92.549 29.3334 92.6717 29.3334C92.7517 29.3334 92.821 29.3494 92.8797 29.3814C92.9384 29.4134 92.989 29.4588 93.0317 29.5174L93.6077 30.2374C93.389 30.4934 93.1437 30.7094 92.8717 30.8854C92.5997 31.0561 92.3144 31.1948 92.0157 31.3014C91.7224 31.4028 91.421 31.4748 91.1117 31.5174C90.8077 31.5601 90.5117 31.5814 90.2237 31.5814C89.653 31.5814 89.1224 31.4881 88.6317 31.3014C88.141 31.1094 87.7144 30.8294 87.3517 30.4614C86.989 30.0881 86.7037 29.6294 86.4957 29.0854C86.2877 28.5361 86.1837 27.9014 86.1837 27.1814C86.1837 26.6214 86.2744 26.0961 86.4557 25.6054C86.637 25.1094 86.8957 24.6801 87.2317 24.3174C87.573 23.9494 87.9864 23.6588 88.4717 23.4454C88.9624 23.2321 89.5144 23.1254 90.1277 23.1254ZM90.1677 24.5414C89.5917 24.5414 89.141 24.7041 88.8157 25.0294C88.4904 25.3548 88.2824 25.8161 88.1917 26.4134H91.9037C91.9037 26.1574 91.869 25.9174 91.7997 25.6934C91.7304 25.4641 91.6237 25.2641 91.4797 25.0934C91.3357 24.9228 91.1544 24.7894 90.9357 24.6934C90.717 24.5921 90.461 24.5414 90.1677 24.5414ZM101.059 31.4614C100.803 31.4614 100.635 31.3414 100.555 31.1014L100.395 30.3094C100.224 30.5014 100.045 30.6748 99.8586 30.8294C99.6719 30.9841 99.4692 31.1174 99.2506 31.2294C99.0372 31.3414 98.8052 31.4268 98.5546 31.4854C98.3092 31.5494 98.0426 31.5814 97.7546 31.5814C97.3066 31.5814 96.8959 31.4881 96.5226 31.3014C96.1492 31.1148 95.8266 30.8454 95.5546 30.4934C95.2879 30.1361 95.0799 29.6961 94.9306 29.1734C94.7866 28.6508 94.7146 28.0534 94.7146 27.3814C94.7146 26.7734 94.7972 26.2081 94.9626 25.6854C95.1279 25.1628 95.3652 24.7094 95.6746 24.3254C95.9839 23.9414 96.3546 23.6428 96.7866 23.4294C97.2186 23.2108 97.7039 23.1014 98.2426 23.1014C98.7012 23.1014 99.0932 23.1761 99.4186 23.3254C99.7439 23.4694 100.035 23.6641 100.291 23.9094V19.5734H102.267V31.4614H101.059ZM98.4266 30.0134C98.8372 30.0134 99.1866 29.9281 99.4746 29.7574C99.7626 29.5868 100.035 29.3441 100.291 29.0294V25.3494C100.067 25.0774 99.8212 24.8854 99.5546 24.7734C99.2932 24.6614 99.0106 24.6054 98.7066 24.6054C98.4079 24.6054 98.1359 24.6614 97.8906 24.7734C97.6506 24.8854 97.4452 25.0561 97.2746 25.2854C97.1092 25.5094 96.9812 25.7974 96.8906 26.1494C96.7999 26.4961 96.7546 26.9068 96.7546 27.3814C96.7546 27.8614 96.7919 28.2694 96.8666 28.6054C96.9466 28.9361 97.0586 29.2081 97.2026 29.4214C97.3466 29.6294 97.5226 29.7814 97.7306 29.8774C97.9386 29.9681 98.1706 30.0134 98.4266 30.0134ZM114.909 19.8934V21.6054H109.781V25.0294H114.109V26.7494H109.781V31.4614H107.613V19.8934H114.909ZM116.001 31.4614V23.2534H117.161C117.364 23.2534 117.505 23.2908 117.585 23.3654C117.665 23.4401 117.719 23.5681 117.745 23.7494L117.865 24.7414C118.159 24.2348 118.503 23.8348 118.897 23.5414C119.292 23.2481 119.735 23.1014 120.225 23.1014C120.631 23.1014 120.967 23.1948 121.233 23.3814L120.977 24.8614C120.961 24.9574 120.927 25.0268 120.873 25.0694C120.82 25.1068 120.748 25.1254 120.657 25.1254C120.577 25.1254 120.468 25.1068 120.329 25.0694C120.191 25.0321 120.007 25.0134 119.777 25.0134C119.367 25.0134 119.015 25.1281 118.721 25.3574C118.428 25.5814 118.18 25.9121 117.977 26.3494V31.4614H116.001ZM125.925 23.1254C126.442 23.1254 126.917 23.2081 127.349 23.3734C127.786 23.5388 128.162 23.7814 128.477 24.1014C128.791 24.4161 129.037 24.8054 129.213 25.2694C129.389 25.7281 129.477 26.2534 129.477 26.8454C129.477 26.9948 129.469 27.1201 129.453 27.2214C129.442 27.3174 129.418 27.3948 129.381 27.4534C129.349 27.5068 129.303 27.5468 129.245 27.5734C129.186 27.5948 129.111 27.6054 129.021 27.6054H123.949C124.007 28.4481 124.234 29.0668 124.629 29.4614C125.023 29.8561 125.546 30.0534 126.197 30.0534C126.517 30.0534 126.791 30.0161 127.021 29.9414C127.255 29.8668 127.458 29.7841 127.629 29.6934C127.805 29.6028 127.957 29.5201 128.085 29.4454C128.218 29.3708 128.346 29.3334 128.469 29.3334C128.549 29.3334 128.618 29.3494 128.677 29.3814C128.735 29.4134 128.786 29.4588 128.829 29.5174L129.405 30.2374C129.186 30.4934 128.941 30.7094 128.669 30.8854C128.397 31.0561 128.111 31.1948 127.813 31.3014C127.519 31.4028 127.218 31.4748 126.909 31.5174C126.605 31.5601 126.309 31.5814 126.021 31.5814C125.45 31.5814 124.919 31.4881 124.429 31.3014C123.938 31.1094 123.511 30.8294 123.149 30.4614C122.786 30.0881 122.501 29.6294 122.293 29.0854C122.085 28.5361 121.981 27.9014 121.981 27.1814C121.981 26.6214 122.071 26.0961 122.253 25.6054C122.434 25.1094 122.693 24.6801 123.029 24.3174C123.37 23.9494 123.783 23.6588 124.269 23.4454C124.759 23.2321 125.311 23.1254 125.925 23.1254ZM125.965 24.5414C125.389 24.5414 124.938 24.7041 124.613 25.0294C124.287 25.3548 124.079 25.8161 123.989 26.4134H127.701C127.701 26.1574 127.666 25.9174 127.597 25.6934C127.527 25.4641 127.421 25.2641 127.277 25.0934C127.133 24.9228 126.951 24.7894 126.733 24.6934C126.514 24.5921 126.258 24.5414 125.965 24.5414ZM134.471 23.1254C134.989 23.1254 135.463 23.2081 135.895 23.3734C136.333 23.5388 136.709 23.7814 137.023 24.1014C137.338 24.4161 137.583 24.8054 137.759 25.2694C137.935 25.7281 138.023 26.2534 138.023 26.8454C138.023 26.9948 138.015 27.1201 137.999 27.2214C137.989 27.3174 137.965 27.3948 137.927 27.4534C137.895 27.5068 137.85 27.5468 137.791 27.5734C137.733 27.5948 137.658 27.6054 137.567 27.6054H132.495C132.554 28.4481 132.781 29.0668 133.175 29.4614C133.57 29.8561 134.093 30.0534 134.743 30.0534C135.063 30.0534 135.338 30.0161 135.567 29.9414C135.802 29.8668 136.005 29.7841 136.175 29.6934C136.351 29.6028 136.503 29.5201 136.631 29.4454C136.765 29.3708 136.893 29.3334 137.015 29.3334C137.095 29.3334 137.165 29.3494 137.223 29.3814C137.282 29.4134 137.333 29.4588 137.375 29.5174L137.951 30.2374C137.733 30.4934 137.487 30.7094 137.215 30.8854C136.943 31.0561 136.658 31.1948 136.359 31.3014C136.066 31.4028 135.765 31.4748 135.455 31.5174C135.151 31.5601 134.855 31.5814 134.567 31.5814C133.997 31.5814 133.466 31.4881 132.975 31.3014C132.485 31.1094 132.058 30.8294 131.695 30.4614C131.333 30.0881 131.047 29.6294 130.839 29.0854C130.631 28.5361 130.527 27.9014 130.527 27.1814C130.527 26.6214 130.618 26.0961 130.799 25.6054C130.981 25.1094 131.239 24.6801 131.575 24.3174C131.917 23.9494 132.33 23.6588 132.815 23.4454C133.306 23.2321 133.858 23.1254 134.471 23.1254ZM134.511 24.5414C133.935 24.5414 133.485 24.7041 133.159 25.0294C132.834 25.3548 132.626 25.8161 132.535 26.4134H136.247C136.247 26.1574 136.213 25.9174 136.143 25.6934C136.074 25.4641 135.967 25.2641 135.823 25.0934C135.679 24.9228 135.498 24.7894 135.279 24.6934C135.061 24.5921 134.805 24.5414 134.511 24.5414Z" fill="#2693FF"/>
</svg>
