<svg width="64" height="34" viewBox="0 0 64 34" fill="none" xmlns="http://www.w3.org/2000/svg">
<path d="M41.3025 11.3333C42.5992 11.3333 43.8441 10.8247 44.7697 9.91667C45.6954 9.00866 46.9403 8.5 48.2369 8.5H48.525C50.6517 8.5 52.5987 9.6929 53.5645 11.5877L54.2202 12.8741C54.6245 13.6673 55.4395 14.1667 56.3298 14.1667H58.0568C59.7961 14.1667 60.5251 16.3878 59.1241 17.4185C58.2643 18.0511 57.1682 18.2697 56.1315 18.0155L53.9114 17.471C52.6355 17.1581 51.3267 17 50.013 17C45.7267 17 41.6114 18.6815 38.5515 21.6831L35.0695 25.0987C31.1047 28.988 25.7725 31.1667 20.2186 31.1667C18.3673 32.9827 15.8775 34 13.2842 34H8.66511L14.4418 28.3333L28.8837 22.6667L17.3302 25.5C13.7853 25.5 10.54 23.5116 8.93013 20.3533L8.66511 19.8333H17.3302L8.44903 18.0909C5.21849 17.4571 2.88837 14.6255 2.88837 11.3333L14.4418 14.1667L8.35704 11.7791C3.68023 9.94404 1.27196 4.75682 2.88837 0L4.04774 0.758185C14.5991 7.6584 26.933 11.3333 39.5403 11.3333H41.3025Z" fill="#2693FF"/>
</svg>
