<svg width="144" height="144" viewBox="0 0 144 144" fill="none" xmlns="http://www.w3.org/2000/svg">
<g filter="url(#filter0_d)">
<rect x="30" y="13" width="84" height="84" rx="13.248" fill="#FF4A00"/>
</g>
<path fill-rule="evenodd" clip-rule="evenodd" d="M79.3375 52.9345H88.9834V52.9347C89.1356 53.8409 89.2124 54.7581 89.2131 55.677V55.7007C89.2124 56.6195 89.1356 57.5368 88.9834 58.4429H79.3375L86.1581 65.2636C85.623 66.0149 85.0263 66.7204 84.3742 67.3727L84.3726 67.374C83.7203 68.0262 83.0148 68.6229 82.2634 69.158L75.4429 62.3374V71.9834C74.5367 72.1356 73.6195 72.2124 72.7006 72.2131H72.677C71.758 72.2124 70.8407 72.1356 69.9344 71.9834V62.3379L63.1139 69.1583C61.608 68.0857 60.2916 66.7694 59.219 65.2635L66.0395 58.4429H56.3936C56.2411 57.5347 56.1643 56.6154 56.1639 55.6944V55.6824C56.1643 54.7463 56.3936 52.9344 56.3936 52.9344H66.0399L59.2193 46.1139C59.7539 45.363 60.35 44.6579 61.0016 44.006L61.0041 44.0037C61.6565 43.3513 62.3622 42.7543 63.1139 42.2191L69.9344 49.0396V39.3936C70.8415 39.2413 71.7598 39.1644 72.6796 39.1639H72.6971C73.6171 39.1645 74.5354 39.2414 75.4427 39.3938V49.0391L82.2632 42.2186C83.0145 42.7536 83.7199 43.3503 84.3721 44.0024L84.3724 44.0031C85.0253 44.6558 85.6226 45.3619 86.1581 46.1139L79.3375 52.9345ZM76.1851 59.1844C76.5944 58.0992 76.8189 56.9237 76.8197 55.6957L76.8196 55.696V55.6818C76.8188 54.4539 76.594 53.2783 76.1851 52.1932C75.1001 51.7839 73.9241 51.5586 72.6956 51.5578H72.6814C71.4532 51.5586 70.2773 51.7839 69.1918 52.1932C68.7831 53.2783 68.5582 54.4538 68.5574 55.6818V55.696C68.5582 56.9243 68.7836 58.1004 69.1929 59.1852C70.2779 59.5946 71.4536 59.8189 72.6814 59.8198H72.6956C73.9241 59.8189 75.1001 59.594 76.1851 59.1844Z" fill="white"/>
<defs>
<filter id="filter0_d" x="0" y="0" width="144" height="144" filterUnits="userSpaceOnUse" color-interpolation-filters="sRGB">
<feFlood flood-opacity="0" result="BackgroundImageFix"/>
<feColorMatrix in="SourceAlpha" type="matrix" values="0 0 0 0 0 0 0 0 0 0 0 0 0 0 0 0 0 0 127 0"/>
<feOffset dy="17"/>
<feGaussianBlur stdDeviation="15"/>
<feColorMatrix type="matrix" values="0 0 0 0 0 0 0 0 0 0 0 0 0 0 0 0 0 0 0.12 0"/>
<feBlend mode="normal" in2="BackgroundImageFix" result="effect1_dropShadow"/>
<feBlend mode="normal" in="SourceGraphic" in2="effect1_dropShadow" result="shape"/>
</filter>
</defs>
</svg>
